<svg width="160" height="132" viewBox="0 0 160 132" fill="none" xmlns="http://www.w3.org/2000/svg">
<g clip-path="url(#clip0)">
<path d="M7.12412 6.67572e-06C3.46588 6.67572e-06 0.385254 2.87791 0.385254 6.71512V96.5058C0.385254 100.151 3.27334 103.221 7.12412 103.221H144.982C148.64 103.221 151.721 100.343 151.721 96.5058V48.7325C144.02 48.7325 137.858 42.593 137.858 34.9186C137.858 27.2442 144.02 21.1047 151.721 21.1047V6.71512C151.721 3.06977 148.833 6.67572e-06 144.982 6.67572e-06H7.12412Z" fill="url(#paint0_linear)"/>
<path d="M4.42822 4.98838C5.96854 5.75582 7.31632 7.2907 8.47156 9.78489H144.404C144.789 7.67442 145.945 6.13954 147.87 4.79652C147.1 3.83722 146.137 3.26163 145.174 3.26163H6.93127C5.96857 3.45349 5.00584 4.02907 4.42822 4.98838Z" fill="url(#paint1_linear)"/>
<path d="M0.770188 4.79652C0.770188 4.98838 0.770188 4.98838 0.770188 4.79652V4.79652ZM139.976 42.2093C94.7292 66.5756 47.7497 68.4942 0.770188 68.686H0.577637V96.314C0.577637 99.9593 3.46572 103.029 7.31651 103.029H145.175C148.833 103.029 151.913 100.151 151.913 96.314V48.7326C146.715 48.7326 142.479 46.0465 139.976 42.2093Z" fill="url(#paint2_linear)"/>
<path d="M12.3225 93.0523C12.3225 93.0523 11.3598 92.8605 11.5523 92.6686C11.7449 91.7093 12.1299 91.1337 12.1299 90.75C12.1299 90.3663 12.9001 90.75 12.9001 90.75L13.4777 89.5988C13.4777 89.5988 12.7075 89.407 12.9001 89.0233C13.0926 88.2558 13.4777 87.8721 13.6703 87.6802C13.8628 87.4884 14.2479 87.8721 14.2479 87.8721C14.2479 87.8721 14.633 87.4884 14.633 87.2965C15.2106 86.5291 15.9807 86.1454 16.1732 85.5698L16.5583 84.4186C16.5583 84.4186 15.7882 84.0349 15.9807 83.843C16.3658 83.2674 16.5583 83.0756 16.7508 82.5C16.9434 82.3081 17.3284 82.8837 17.3284 82.8837L17.9061 82.1163C17.9061 82.1163 17.3285 81.7326 17.521 81.5407C17.7136 80.9651 18.2912 80.5814 18.4837 80.0058C18.6763 79.814 19.0613 80.3895 19.0613 80.3895C19.0613 80.3895 20.2166 79.0465 20.7942 78.8547C21.1793 78.8547 21.9494 79.4302 21.9494 79.4302L23.2972 80.7733L24.645 82.1163H25.4151C26.9554 82.1163 30.8063 80.9651 35.2347 79.2384C37.7377 78.2791 40.4332 77.3198 41.2033 77.1279C41.2033 77.1279 42.166 76.7442 42.7436 76.7442C42.9362 76.7442 43.5138 76.936 43.5138 76.936L44.2839 77.1279L43.5138 75.9767C43.1287 75.2093 42.166 73.6744 41.5884 72.3314C40.8183 70.9884 40.4331 69.6453 39.8555 68.4942L39.0854 68.686L37.7376 65.4244C33.8869 57.5581 33.5017 55.4477 33.6943 50.6512C33.8868 49.5 34.2719 48.7326 34.8496 47.9651L34.0794 47.7732C34.0794 47.7732 33.3093 47.9651 33.3093 47.5814C33.3093 45.8546 33.6943 42.593 33.6943 42.593C34.2719 36.8372 35.0421 31.0814 36.3898 27.0523L36.9674 25.3256L38.8928 24.3663L40.8182 23.407L39.8555 23.5988C39.2779 23.5988 36.9675 23.9826 34.8496 23.9826L30.8062 24.3663L26.9554 28.5872L22.7196 32.4244L22.3345 33.7674C22.3345 33.7674 22.142 34.7267 21.9494 35.1105C21.7569 35.4942 20.9867 36.2616 20.9867 36.2616C20.4091 36.8372 19.4465 37.6046 18.8688 37.9884L17.7135 38.564H16.9434C15.7882 38.564 15.2105 38.3721 15.2105 37.7965C15.2105 37.6046 15.7881 36.8372 16.3657 36.2616C16.9434 35.4942 17.521 34.9186 17.3284 34.9186C17.3284 34.9186 16.7509 35.1105 16.1732 35.4942C16.1732 35.4942 15.4031 36.2616 15.0181 36.2616C14.633 36.2616 14.4403 35.686 14.4403 35.1105C14.4403 34.7267 15.2106 34.5349 15.5956 34.343C16.5583 33.5756 16.9434 33 17.7135 31.8488C18.0986 31.2733 18.6762 30.5058 19.2538 30.3139L20.2165 29.7384L22.7196 25.7093C24.0674 23.5988 25.6076 20.9128 26.3778 19.9535C26.3778 19.9535 26.9555 18.6105 27.5331 18.0349C27.9182 17.843 28.6883 17.6512 28.6883 17.6512L30.2286 17.2674C30.2286 16.6919 29.8436 16.1163 30.4212 16.1163C34.657 15.157 36.0048 14.5814 39.663 13.8139C42.7437 13.2384 45.6317 13.4302 45.6317 13.4302L46.9795 13.6221C48.9049 14.0058 51.793 14.7732 53.1408 15.157L54.296 15.5407L54.8736 14.3895C55.6437 12.8547 57.184 11.3198 58.7243 10.5523C60.6497 9.78488 62.3826 9.40116 64.308 9.97674L65.4632 10.3605C67.5811 11.7035 68.7364 13.6221 69.6991 15.7326C69.8916 18.0349 70.2768 19.7616 68.929 20.9128C68.5439 21.1046 68.1587 21.1046 67.3886 21.4884C66.4259 21.8721 65.8483 23.0232 64.8856 24.3663C64.8856 24.3663 64.5006 24.9419 64.1155 25.1337C63.7304 25.3256 63.5379 25.3256 63.1528 25.1337C62.3827 25.1337 61.9975 25.3256 61.9975 25.3256L61.0348 25.9012C60.4572 26.2849 59.6871 26.4767 59.302 26.4767H58.7243C58.3393 26.2849 57.9542 25.5174 57.9542 25.5174L57.3767 24.5581L57.184 25.1337C55.4512 29.9302 55.0661 35.4942 53.3333 40.2907L55.6438 40.4826C56.799 40.6744 59.8796 41.0581 62.3826 41.4419C62.3826 41.4419 65.6558 41.8256 67.0036 42.2093C67.3887 42.2093 67.5812 43.1686 67.5812 43.1686L70.4693 43.7442C72.0096 44.1279 74.5125 44.7035 76.0528 45.2791L78.7484 46.2384C78.7484 46.2384 80.6738 45.8546 81.6365 45.8546C82.7918 45.8546 84.9097 46.6221 84.9097 46.6221L85.1022 46.2384L87.7978 47.3895C89.1456 47.9651 92.0336 49.3081 94.7292 50.4593C100.12 52.7616 103.971 54.1047 106.089 54.6802L107.629 55.064L111.865 54.6802C114.176 54.4884 116.679 54.1047 117.449 53.9128C119.374 53.5291 119.952 53.5291 120.722 54.2965C121.107 54.6802 121.685 55.2558 121.492 55.4477C121.3 55.6395 120.915 56.0233 120.529 56.0233C120.529 56.0233 120.914 56.407 120.722 56.5988C120.337 56.9826 119.952 56.9826 119.567 57.1744C119.374 57.1744 119.182 56.7907 119.182 56.7907L118.411 57.3663C118.604 57.5581 118.797 57.75 118.604 57.9419C118.219 58.3256 117.834 58.5174 117.449 58.7093C117.256 58.9012 117.256 58.5174 117.064 58.3256L112.25 61.9709C112.25 61.9709 112.828 62.3546 112.635 62.7384C112.058 63.314 112.058 63.314 111.673 63.5058C111.48 63.5058 111.288 63.1221 111.095 62.9302L110.325 63.5058C110.325 63.5058 110.902 64.0814 110.71 64.2733C110.517 64.4651 110.132 64.657 109.555 65.0407C109.362 65.2326 108.784 64.4651 108.784 64.4651C108.784 64.4651 107.244 65.4244 106.667 65.2326C106.282 65.0407 106.282 64.0814 105.704 63.1221C105.704 63.1221 105.319 61.9709 104.741 61.5872C104.356 61.2035 103.586 61.2035 103.586 61.2035C101.083 60.8198 96.8471 59.8605 94.3441 59.6686C85.8723 59.093 84.1396 58.7093 81.0589 57.1744L78.9409 56.0233L72.5872 55.8314L66.0409 55.6395L65.6558 56.407H52.5632V56.9826C52.5632 57.3663 52.9482 58.9012 53.3333 61.0116C53.3333 61.0116 54.1034 64.4651 53.7184 64.8488C53.3333 65.2326 52.7557 65.6163 52.7557 65.6163L53.5259 70.0291C54.4886 76.3605 54.6811 76.5523 54.6811 78.8547V80.9651L54.296 81.7326C54.1034 82.1163 53.7184 83.0756 53.1408 83.4593L52.3706 84.4186L50.6378 85.186C49.6751 85.5698 49.0975 85.9535 48.7124 85.9535C48.5199 85.9535 47.7496 86.1454 47.5571 86.3372C47.3646 86.3372 47.5571 86.7209 47.3646 86.7209C46.9795 86.7209 43.8989 86.9128 43.8989 86.9128C41.9735 87.1047 36.7749 87.2965 31.9615 87.6802L23.4897 88.0639L22.3345 88.8314C19.8315 90.3663 17.7136 92.2849 16.5583 93.8198L15.2105 95.1628C14.8255 95.3547 14.2479 95.5465 13.6703 95.5465C12.7076 95.5465 12.1299 95.1628 12.1299 94.5872C11.9374 94.0116 12.3225 93.0523 12.3225 93.0523Z" fill="white"/>
<path d="M0.577637 95.9302V96.314C0.577637 99.9593 3.46572 103.029 7.31651 103.029H145.175C148.833 103.029 151.913 100.151 151.913 96.314V95.9302H0.577637Z" fill="url(#paint3_linear)"/>
<path d="M151.721 27.0523C148.063 27.0523 145.174 29.1628 145.174 31.8488C145.174 34.5349 148.063 36.6454 151.721 36.6454C155.379 36.6454 158.267 34.5349 158.267 31.8488C158.075 29.1628 155.187 27.0523 151.721 27.0523ZM158.652 30.6977C159.037 31.4651 159.422 32.4244 159.422 33.5756C159.422 37.2209 155.957 40.0988 151.721 40.0988C147.485 40.0988 144.212 37.2209 144.212 33.5756C144.212 33 144.404 32.4244 144.404 31.8488C144.019 32.8081 143.827 33.5756 143.827 34.7267C143.827 38.7558 147.292 42.2093 151.721 42.2093C156.149 42.2093 159.615 38.9477 159.615 34.7267C159.807 33 159.23 31.8488 158.652 30.6977Z" fill="url(#paint4_radial)"/>
<path d="M151.721 26.6686C147.1 26.6686 143.442 30.314 143.442 34.9186C143.442 39.5233 147.1 43.1686 151.721 43.1686C156.342 43.1686 160 39.5233 160 34.9186C160 30.314 156.149 26.6686 151.721 26.6686ZM149.025 27.436C149.025 27.436 150.566 27.0523 151.721 27.0523C152.876 27.0523 155.764 27.6279 157.112 29.3546C159.615 32.8081 156.727 34.9186 156.342 35.3023C156.342 34.9186 155.764 32.8081 155.187 31.8488C154.802 31.2733 154.416 30.6977 154.031 30.314C153.454 29.7384 153.069 29.3547 152.299 28.7791C150.181 28.2035 151.913 28.7791 152.684 29.3546C152.684 29.3546 155.764 32.0407 155.957 35.3023C154.801 36.0698 153.261 36.6454 151.721 36.6454C148.063 36.6454 145.367 34.5349 145.367 31.8488C145.945 28.5872 147.87 28.2035 148.063 27.8198C148.255 27.8198 148.64 27.6279 149.025 27.436ZM151.721 41.8256C144.404 41.4419 143.057 35.3023 144.404 31.657C142.864 35.3023 146.137 39.7151 151.721 39.907C154.994 39.907 155.957 38.7558 155.957 38.7558C155.957 38.7558 155.957 39.5233 155.764 39.907C155.764 40.2907 155.572 40.8663 155.572 40.8663C154.416 41.6337 154.031 41.6337 151.721 41.8256Z" fill="url(#paint5_radial)"/>
<path d="M156.342 35.8779C156.149 35.1105 156.149 34.7267 155.957 34.1512L155.764 33.1919C154.801 30.5058 153.454 29.5465 151.721 28.3953C151.143 28.0116 149.988 27.436 149.41 27.2442C150.181 27.0523 150.373 27.0523 150.758 26.8605C152.491 26.8605 154.031 26.8605 155.957 27.8198C158.075 28.9709 159.23 30.5058 159.23 32.2326C159.23 32.8081 159.23 33.1919 159.037 33.5756C158.845 34.5349 158.46 35.3023 157.69 36.2616C157.497 36.6453 157.112 36.6454 156.919 36.6454C156.342 36.8372 156.342 36.2616 156.342 35.8779Z" fill="url(#paint6_linear)"/>
<path d="M154.224 31.0814C154.224 33 152.684 34.7267 150.566 34.7267C148.448 34.7267 146.907 33.1919 146.907 31.0814C146.907 29.1628 148.448 27.436 150.566 27.436C152.684 27.436 154.224 29.1628 154.224 31.0814Z" fill="url(#paint7_radial)"/>
<path d="M147.87 32.2326C149.025 31.0814 150.758 30.314 153.646 30.6977C152.683 29.5465 151.721 28.7791 150.373 28.2035C147.87 28.7791 146.715 29.9302 146.137 31.4651C146.522 31.4651 146.907 31.657 147.87 32.2326Z" fill="white" stroke="white"/>
<path d="M85.2949 113.581C82.5993 113.581 80.6738 114.541 79.9037 116.651C79.5186 117.419 79.5187 117.61 79.5187 118.953C79.5187 120.105 79.7111 120.488 79.9037 120.872C80.6738 122.215 81.6366 122.791 84.9098 123.942C88.1829 125.093 88.7605 125.477 88.7605 126.82C88.7605 127.587 88.3754 128.163 87.4127 128.738C86.8351 129.122 86.6426 129.122 85.4874 129.122C83.947 129.122 82.9843 128.738 81.8291 127.779C81.444 127.395 80.8664 127.203 80.8664 127.203C80.6738 127.203 78.941 128.93 78.941 129.122C78.941 129.314 80.2887 130.465 80.8664 130.849C81.6365 131.233 82.4068 131.616 83.3695 131.808C84.5247 132 87.0276 132 87.9903 131.616C89.7232 131.041 90.8784 130.081 91.456 128.738C91.6486 128.163 91.8411 127.779 91.8411 126.628C91.8411 125.285 91.8411 125.093 91.456 124.517C91.0709 123.75 90.3008 122.983 89.3381 122.407C88.9531 122.215 87.6053 121.64 86.2576 121.256C84.9098 120.872 83.562 120.296 83.3695 120.105C82.4068 119.529 82.2142 118.378 82.9844 117.61C83.9471 116.459 86.8351 116.459 88.5679 117.802C88.953 118.186 89.3381 118.378 89.3381 118.378C89.5307 118.378 91.2635 116.651 91.2635 116.459C91.2635 116.076 90.1083 115.116 88.953 114.733C87.6053 113.773 86.8352 113.581 85.2949 113.581ZM125.535 113.581C123.803 113.581 122.84 113.773 121.492 114.541C119.759 115.5 118.412 117.035 117.641 119.529C117.449 120.488 117.256 120.872 117.256 122.791C117.256 125.285 117.449 126.244 118.219 127.779C119.374 129.89 121.3 131.424 123.61 131.808C126.498 132.384 129.579 131.616 131.312 129.89C132.852 128.355 133.237 126.82 133.43 123.75V121.64H126.113V125.093H127.268C128.424 125.093 128.424 125.093 128.424 125.477C128.424 126.244 127.846 127.203 127.076 127.395C126.498 127.587 125.15 127.587 124.573 127.395C123.995 127.203 123.225 126.244 122.84 125.477C122.455 124.326 122.455 122.791 122.647 121.64C123.032 119.337 123.803 118.186 125.535 118.186C126.113 118.186 127.076 118.57 127.268 118.953C127.461 119.145 127.653 119.337 127.846 119.337C128.231 119.337 132.082 117.802 132.274 117.61C132.467 117.419 131.697 116.076 130.927 115.5C129.771 114.157 128.038 113.581 125.535 113.581ZM49.6751 113.965V131.616H53.1408C55.8364 131.616 56.7991 131.424 57.3767 131.233C61.2275 130.081 63.3454 127.203 63.3454 122.599C63.3454 120.872 63.1528 119.529 62.3827 118.186C61.42 116.267 60.0722 114.924 57.9543 114.349C56.9916 113.965 56.799 113.965 53.3333 113.965H49.6751ZM35.4272 113.965H32.3466V131.424C32.3466 131.616 32.7316 131.616 33.6943 131.616H35.0421V125.477C35.0421 122.599 34.8496 119.529 34.8496 119.529C34.8496 119.529 35.0421 119.529 36.3899 121.448C37.16 122.599 38.8929 125.477 40.2407 127.587L42.9363 131.616H45.6317V113.965H42.5512V120.105C42.5512 124.134 42.5511 126.244 42.3585 126.052C42.3585 125.86 40.6257 123.174 38.5078 119.913L35.4272 113.965ZM145.174 113.965H139.976L133.815 131.424H139.206L139.976 128.547L144.982 128.738L145.945 131.616L151.336 131.424L145.174 113.965ZM0 113.965V131.616C0.192539 131.808 7.70156 131.808 8.66426 131.616C9.62696 131.424 10.9747 130.849 11.5523 130.273C12.515 129.314 13.2852 127.395 13.0926 125.669C12.9001 124.134 12.3225 122.983 11.1672 122.407C10.9747 122.215 10.5897 122.023 10.5897 122.023L11.1672 121.448C12.1299 120.68 12.3225 119.913 12.3225 118.186C12.3225 117.035 12.1299 116.843 11.9374 116.076C11.3598 115.116 10.5896 114.349 9.4344 113.965C8.66425 113.773 8.27915 113.773 4.23583 113.773H0V113.965ZM26.1853 113.965V119.145C26.1853 122.023 26.1853 124.709 25.9927 125.285C25.6076 127.779 24.4524 128.93 22.1419 128.738C20.6016 128.738 19.4465 127.971 18.8689 126.436C18.6763 125.86 18.6763 125.477 18.4838 119.721V113.773H15.4031V119.721C15.2105 125.285 15.4031 131.616 22.1419 131.808C25.6076 131.808 27.7256 130.273 28.6883 127.012C28.8809 126.436 28.8808 125.285 28.8808 120.105V113.965H26.1853ZM109.17 113.965V131.616H114.368V113.965H109.17ZM65.4632 113.965V131.424C65.4632 131.616 66.8111 131.616 71.432 131.616H77.4007V128.547H68.5439V123.558H73.5499V120.488H68.5439V116.651H77.0156V113.965H65.4632ZM94.9218 113.965V131.424C94.9218 131.616 96.2695 131.616 100.89 131.616H106.667V127.012H100.12V113.965H94.9218ZM5.77617 116.651C6.73887 116.651 7.50903 116.651 7.70156 116.843C8.8568 117.035 9.62694 117.994 9.4344 119.145C9.4344 119.913 8.66422 120.488 8.08661 120.68C7.89407 120.68 6.54629 120.872 5.19852 120.872H2.69554V116.651H5.77617ZM52.5632 116.651H53.3333C54.4885 116.651 56.414 116.843 56.9916 117.035C59.1095 117.802 60.0722 119.721 60.0722 122.599C60.0722 123.942 59.8797 124.901 59.4946 125.86C58.917 127.203 57.7617 127.971 56.2214 128.355C55.6438 128.546 54.681 128.547 53.9109 128.547H52.5632V116.651ZM142.479 119.913L143.827 124.517H140.939L142.479 119.913ZM2.69554 123.366H5.00603C8.08665 123.366 8.66424 123.558 9.24185 124.134C10.5896 125.477 10.012 127.971 8.27916 128.547C7.89408 128.547 6.54629 128.738 5.19852 128.738H2.69554V123.366Z" fill="white"/>
</g>
<defs>
<linearGradient id="paint0_linear" x1="86.3251" y1="56.3782" x2="124.139" y2="74.6749" gradientUnits="userSpaceOnUse">
<stop stop-color="#CD090D"/>
<stop offset="1" stop-color="#F39272"/>
</linearGradient>
<linearGradient id="paint1_linear" x1="76.1722" y1="3.4439" x2="76.1722" y2="9.14983" gradientUnits="userSpaceOnUse">
<stop stop-color="white"/>
<stop offset="0.3" stop-color="white" stop-opacity="0.498"/>
<stop offset="1" stop-color="white" stop-opacity="0"/>
</linearGradient>
<linearGradient id="paint2_linear" x1="0.91458" y1="53.9243" x2="95.6034" y2="53.9243" gradientUnits="userSpaceOnUse">
<stop stop-color="#8E0902"/>
<stop offset="1" stop-color="#E2080E"/>
</linearGradient>
<linearGradient id="paint3_linear" x1="76.1107" y1="104.804" x2="76.1107" y2="95.7537" gradientUnits="userSpaceOnUse">
<stop stop-color="#580000" stop-opacity="0.863"/>
<stop offset="0.547" stop-color="#740500" stop-opacity="0.514"/>
<stop offset="0.815" stop-color="#800700" stop-opacity="0.255"/>
<stop offset="1" stop-color="#8C0A00" stop-opacity="0"/>
</linearGradient>
<radialGradient id="paint4_radial" cx="0" cy="0" r="1" gradientUnits="userSpaceOnUse" gradientTransform="translate(150.67 31.0235) rotate(136.138) scale(14.9831 14.347)">
<stop stop-color="white"/>
<stop offset="0.5" stop-color="#464646"/>
<stop offset="1"/>
</radialGradient>
<radialGradient id="paint5_radial" cx="0" cy="0" r="1" gradientUnits="userSpaceOnUse" gradientTransform="translate(152.087 31.6128) scale(8.20991 8.18094)">
<stop stop-color="#EFEFEF"/>
<stop offset="0.55" stop-color="#AFAFAF"/>
<stop offset="1" stop-color="#3F3F3F"/>
</radialGradient>
<linearGradient id="paint6_linear" x1="154.078" y1="28.4836" x2="153.684" y2="32.7585" gradientUnits="userSpaceOnUse">
<stop stop-color="white" stop-opacity="0.766"/>
<stop offset="1" stop-color="#AAAAAA" stop-opacity="0.475"/>
</linearGradient>
<radialGradient id="paint7_radial" cx="0" cy="0" r="1" gradientUnits="userSpaceOnUse" gradientTransform="translate(150.567 31.1435) scale(3.57528 3.5627)">
<stop stop-color="white"/>
<stop offset="1" stop-color="white" stop-opacity="0"/>
</radialGradient>
<clipPath id="clip0">
<rect width="160" height="132" fill="white"/>
</clipPath>
</defs>
</svg>
