<svg width="139" height="33" viewBox="0 0 139 33" fill="none" xmlns="http://www.w3.org/2000/svg">
<g clip-path="url(#clip0)">
<path d="M13.0122 12.7939C10.5897 12.7939 8.61011 14.7639 8.61011 17.1947C8.61011 19.6165 10.5807 21.5956 13.0122 21.5956C15.4347 21.5956 17.4143 19.6256 17.4143 17.1947C17.4143 14.7639 15.4438 12.7939 13.0122 12.7939Z" fill="#92DAEC"/>
<path d="M3.71055 9.42311C3.68351 9.46831 3.68351 9.53146 3.71964 9.57666C3.73781 9.59483 3.75576 9.61277 3.77394 9.63094L8.43823 12.3419L8.44732 12.351C8.49253 12.378 8.55569 12.378 8.60999 12.3419C8.62817 12.3328 8.63703 12.3148 8.64612 12.3058C8.65521 12.2967 8.65521 12.2876 8.65521 12.2876C9.08917 11.5285 9.68581 10.8416 10.4449 10.3085C11.2133 9.76632 12.054 9.43197 12.9217 9.27819C12.9308 9.27819 12.9307 9.27819 12.9398 9.27819C12.958 9.27819 12.976 9.26911 12.9941 9.25116C13.0394 9.21505 13.0664 9.16076 13.0573 9.10648V9.09739L12.0719 3.80228V3.79319C12.0719 3.77502 12.0628 3.74799 12.0449 3.73004C12.0088 3.68484 11.9545 3.66667 11.9092 3.66667C11.9001 3.66667 11.9001 3.66667 11.9001 3.66667C10.255 3.96491 8.61886 4.62453 7.16361 5.65484C5.69927 6.66698 4.54212 7.96827 3.71055 9.42311Z" fill="#92DAEC"/>
<path d="M1.05297 19.6617C1.07115 19.7069 1.12523 19.743 1.17953 19.7521C1.20656 19.7521 1.23383 19.7521 1.25178 19.743L6.28664 17.8092H6.29573C6.35003 17.791 6.38616 17.7369 6.38616 17.6826C6.38616 17.6645 6.38616 17.6465 6.37707 17.6284C6.37707 17.6193 6.36798 17.6102 6.36798 17.6013C6.04262 16.7879 5.8888 15.8935 5.94311 14.9626C5.99741 14.0318 6.26846 13.1553 6.68425 12.3871C6.68425 12.378 6.69334 12.378 6.69334 12.3689C6.70243 12.3507 6.70243 12.3328 6.71151 12.3146C6.71151 12.2512 6.68448 12.1972 6.63926 12.1699L6.63017 12.1608L1.87568 9.61278H1.8666C1.84842 9.60369 1.82138 9.5946 1.80343 9.5946C1.74913 9.5946 1.69506 9.62163 1.66779 9.66684C1.66779 9.66684 1.66779 9.67592 1.6587 9.67592C0.863258 11.1492 0.347957 12.83 0.248442 14.6103C0.140065 16.3904 0.438385 18.1074 1.05297 19.6617Z" fill="#92DAEC"/>
<path d="M7.44377 28.075C7.49807 28.0841 7.55215 28.075 7.5885 28.0298C7.60667 28.0117 7.61554 27.9846 7.62462 27.9667L9.2246 22.8158V22.8067C9.24278 22.7524 9.2246 22.6893 9.17939 22.6532C9.16121 22.6441 9.15235 22.635 9.13417 22.6261C9.12508 22.6261 9.116 22.6171 9.10714 22.6171C8.26648 22.364 7.47103 21.9393 6.77488 21.3158C6.07872 20.6923 5.56365 19.9422 5.22011 19.1379C5.22011 19.1288 5.22011 19.1288 5.21102 19.1198C5.20194 19.1016 5.19285 19.0836 5.1749 19.0746C5.12969 19.0384 5.06652 19.0294 5.02131 19.0475H5.01222L0.0677859 21.189H0.0586977C0.0405213 21.1981 0.0225721 21.2072 0.00439574 21.2251C-0.0317298 21.2703 -0.040818 21.3246 -0.0226417 21.3698C-0.0226417 21.3698 -0.0226417 21.3789 -0.0135535 21.3789C0.64625 22.9151 1.64959 24.361 2.97851 25.554C4.31629 26.7556 5.84379 27.5962 7.44377 28.075Z" fill="#92DAEC"/>
<path d="M17.9566 28.3281C18.0018 28.292 18.02 28.2377 18.02 28.1834C18.02 28.1563 18.0109 28.1382 17.993 28.1111L14.9918 23.6381L14.9827 23.629C14.9466 23.5838 14.8923 23.5567 14.838 23.5658C14.8198 23.5658 14.8019 23.5749 14.7837 23.584C14.7746 23.584 14.7655 23.5931 14.7655 23.6022C14.0423 24.0992 13.2107 24.4517 12.2887 24.5961C11.3668 24.7497 10.4538 24.6865 9.61318 24.4426C9.6041 24.4426 9.6041 24.4426 9.59501 24.4335C9.57683 24.4335 9.55888 24.4244 9.54071 24.4335C9.47754 24.4426 9.43233 24.4878 9.42324 24.5418V24.5509L7.98594 29.747V29.7561C7.97685 29.7743 7.97685 29.8013 7.98594 29.8195C7.99503 29.8738 8.03116 29.919 8.08546 29.9369H8.09455C9.70361 30.3887 11.4572 30.5152 13.2198 30.2261C14.9736 29.9367 16.5736 29.2768 17.9566 28.3281Z" fill="#92DAEC"/>
<path d="M24.8084 20.3034C24.8084 20.2491 24.7813 20.195 24.7361 20.1678C24.7179 20.1587 24.6909 20.1496 24.6639 20.1496L19.2855 19.7339H19.2764C19.2221 19.7339 19.168 19.761 19.1408 19.8153C19.1317 19.8334 19.1226 19.8514 19.1226 19.8696C19.1226 19.8786 19.1226 19.8877 19.1226 19.8966C19.0683 20.7731 18.8243 21.6406 18.3723 22.454C17.9204 23.2762 17.3056 23.9451 16.5915 24.451C16.5824 24.451 16.5824 24.4601 16.5733 24.4601C16.5552 24.4692 16.5463 24.4871 16.5372 24.5053C16.5102 24.5596 16.5102 24.6227 16.5463 24.6679L16.5554 24.677L19.7463 29.0238L19.7553 29.0329C19.7644 29.0511 19.7824 29.069 19.8096 29.0781C19.8639 29.1051 19.918 29.0963 19.9632 29.069L19.9723 29.0599C21.3283 28.0748 22.5125 26.7735 23.3802 25.2192C24.2117 23.6471 24.6909 21.9752 24.8084 20.3034Z" fill="#92DAEC"/>
<path d="M22.7744 9.92917C22.7292 9.89306 22.6749 9.88397 22.6208 9.90215C22.5938 9.91123 22.5756 9.92917 22.5574 9.94735L18.8515 13.8601L18.8424 13.8692C18.8063 13.9144 18.7972 13.9687 18.8154 14.0227C18.8245 14.0409 18.8335 14.0588 18.8424 14.0679C18.8515 14.077 18.8515 14.077 18.8606 14.0861C19.5024 14.6826 20.0266 15.4235 20.3792 16.2821C20.7318 17.1495 20.8673 18.0533 20.8132 18.9299C20.8132 18.939 20.8132 18.939 20.8132 18.948C20.8132 18.9662 20.8132 18.9842 20.8223 19.0023C20.8493 19.0566 20.8945 19.0927 20.9488 19.0927H20.9579L26.3454 19.3549H26.3545C26.3727 19.3549 26.3997 19.3549 26.4179 19.3458C26.4722 19.3276 26.4992 19.2735 26.5083 19.2283V19.2193C26.5987 17.5475 26.3365 15.8124 25.6677 14.1585C24.9983 12.4956 24.0038 11.0678 22.7744 9.92917Z" fill="#92DAEC"/>
<path d="M13.3466 5.11265C13.2923 5.12173 13.2471 5.15785 13.2291 5.21214C13.22 5.23917 13.22 5.26642 13.2291 5.28437L14.0155 10.6161V10.6251C14.0245 10.6794 14.0698 10.7246 14.1238 10.7426C14.142 10.7517 14.16 10.7517 14.1781 10.7517C14.1872 10.7517 14.1963 10.7517 14.2052 10.7517C15.0729 10.6161 15.9769 10.6522 16.8719 10.9143C17.7668 11.1764 18.5623 11.6282 19.2221 12.2065C19.2221 12.2065 19.2312 12.2156 19.2403 12.2156C19.2584 12.2247 19.2764 12.2338 19.2946 12.2426C19.3489 12.2608 19.412 12.2426 19.4482 12.1974L19.4572 12.1883L22.9826 8.11273L22.9916 8.10364C23.0098 8.08547 23.0187 8.06753 23.0187 8.04936C23.0369 7.99507 23.0187 7.94101 22.9826 7.90467L22.9735 7.89558C21.717 6.79304 20.1804 5.92559 18.4719 5.43746C16.7362 4.94093 15.0006 4.85053 13.3466 5.11265Z" fill="#92DAEC"/>
<path d="M13.0121 12.7305C10.5533 12.7305 8.54663 14.7275 8.54663 17.1947C8.54663 19.6526 10.5442 21.6499 13.0121 21.6499C15.4709 21.6499 17.4685 19.6529 17.4685 17.1947C17.4774 14.7278 15.4798 12.7305 13.0121 12.7305ZM16.2573 19.7069C16.3295 19.5261 16.3477 19.3183 16.3657 19.1466C16.2752 19.2279 16.1759 19.3092 16.0764 19.3905C15.769 19.6165 15.4346 19.761 15.1183 19.8244L14.2595 18.8845L14.2504 18.8935L14.8741 19.9961C14.7114 20.2852 14.4674 20.5564 14.16 20.7822C14.0516 20.8544 13.9521 20.9269 13.8437 20.981C14.0064 21.008 14.2143 21.0532 14.4042 21.0441C13.9702 21.1977 13.5092 21.279 13.0212 21.279C12.5332 21.279 12.0722 21.1977 11.6382 21.0441C11.8279 21.0532 12.036 21.008 12.1987 20.981C12.0903 20.9267 11.9817 20.8544 11.8825 20.7822C11.575 20.5562 11.331 20.2852 11.1683 19.9961L11.792 18.8845L11.7829 18.8754L10.9152 19.8153C10.599 19.7521 10.2643 19.6074 9.95712 19.3814C9.84874 19.3092 9.75832 19.2279 9.66789 19.1375C9.68606 19.3001 9.7131 19.517 9.77626 19.6978C9.23393 19.0021 8.90857 18.1344 8.90857 17.1857C8.90857 17.1405 8.90857 17.0953 8.90857 17.0501C8.95378 17.2397 9.07125 17.4296 9.15259 17.5832C9.17076 17.4657 9.20689 17.3392 9.24301 17.2127C9.36048 16.8422 9.55042 16.5258 9.77626 16.2819L11.0148 16.5349L11.0238 16.5167L9.86669 15.9925C9.83057 15.6672 9.86669 15.3147 9.98416 14.9533C10.0203 14.8268 10.0746 14.7094 10.1289 14.6008C9.9753 14.673 9.75831 14.7634 9.6045 14.899C10.1377 14.0947 10.9514 13.4894 11.9095 13.2273C11.7286 13.3356 11.575 13.5073 11.4485 13.6339C11.566 13.6157 11.6925 13.6068 11.8282 13.6068C12.2078 13.6068 12.5693 13.6881 12.8676 13.8237L13.0123 15.0708H13.0305L13.1753 13.8237C13.4736 13.6881 13.8262 13.6068 14.2147 13.6068C14.3413 13.6068 14.4678 13.6159 14.5944 13.6339C14.4678 13.5073 14.3142 13.3265 14.1425 13.2273C15.0915 13.4985 15.9051 14.0947 16.4475 14.899C16.2939 14.7634 16.086 14.673 15.9231 14.6008C15.9774 14.7091 16.0226 14.8268 16.0678 14.9533C16.1853 15.3147 16.2214 15.6763 16.1853 15.9925L15.0372 16.5167L15.0463 16.5349L16.2757 16.2819C16.5018 16.5258 16.6824 16.8422 16.8089 17.2127C16.8451 17.3392 16.8812 17.4566 16.8994 17.5832C16.9807 17.4296 17.0891 17.2488 17.1434 17.0501C17.1434 17.0953 17.1434 17.1405 17.1434 17.1766C17.1159 18.1347 16.7996 19.0112 16.2573 19.7069Z" fill="#0A0C0D"/>
<path d="M11.2131 16.6074L11.9002 18.722H14.1329L14.82 16.6074L13.021 15.297L11.2131 16.6074Z" fill="#0A0C0D"/>
<path d="M29.9777 12.6624V20.0526H34.2208V18.378H31.8983V12.6624H29.9777Z" fill="#92DAEC"/>
<path d="M37.7606 15.6765C36.9009 15.6765 36.3536 16.3129 36.3536 17.0943C36.3536 17.9204 36.8672 18.5902 37.6935 18.5902C38.4864 18.5902 39.1563 17.9984 39.1563 17.139C39.1563 16.2683 38.5422 15.6765 37.7606 15.6765ZM34.5447 17.1165C34.5447 15.4644 35.7619 14.0132 37.4033 14.0132C38.1179 14.0132 38.5756 14.2587 39.1005 14.7388V14.1249H40.8647V20.0526H39.0671V19.472C39.0671 19.472 38.4193 20.1976 37.3028 20.1976C35.6612 20.1976 34.5447 19.0144 34.5447 17.1165Z" fill="#92DAEC"/>
<path d="M46.1688 20.0526H41.9254V12.6624H43.8463V18.378H46.1688V20.0526Z" fill="#92DAEC"/>
<path d="M48.7481 20.0526H46.9613V14.1249H48.7481V20.0526ZM46.7941 12.6178C46.7941 12.0151 47.2743 11.5238 47.8659 11.5238C48.4579 11.5238 48.949 11.9927 48.949 12.5954C48.949 13.1981 48.4576 13.7006 47.8435 13.7006C47.2631 13.7006 46.7941 13.2318 46.7941 12.6178Z" fill="#92DAEC"/>
<path d="M52.5113 15.5427C51.6738 15.5427 51.2607 16.2237 51.2607 16.9605C51.2607 17.7195 51.7072 18.3446 52.5001 18.3446C53.3935 18.3446 53.8737 17.6303 53.8737 16.9605C53.8734 16.1788 53.4269 15.5427 52.5113 15.5427ZM49.5186 16.9714C49.5186 15.364 50.5346 14.0132 52.0869 14.0132C52.8352 14.0132 53.3488 14.2587 53.8512 14.7946V14.1249H55.5596V19.3491C55.5596 21.18 54.1861 22.1399 52.5335 22.1399C51.0819 22.1399 49.82 21.4031 49.6303 20.0747H51.6401C51.8857 20.4766 52.1425 20.5548 52.5781 20.5548C53.2034 20.5548 53.7729 20.2647 53.7729 19.6171C53.7729 19.4608 53.7841 19.327 53.7617 19.1707C53.4156 19.4833 52.7678 19.8517 52.0754 19.8517C50.557 19.8626 49.5186 18.5902 49.5186 16.9714Z" fill="#92DAEC"/>
<path d="M59.5572 15.6765C58.6975 15.6765 58.1502 16.3129 58.1502 17.0943C58.1502 17.9204 58.6638 18.5902 59.4901 18.5902C60.283 18.5902 60.953 17.9984 60.953 17.139C60.953 16.2683 60.3389 15.6765 59.5572 15.6765ZM56.3413 17.1165C56.3413 15.4644 57.5586 14.0132 59.1999 14.0132C59.9145 14.0132 60.3723 14.2587 60.8971 14.7388V14.1249H62.6614V20.0526H60.8637V19.472C60.8637 19.472 60.2159 20.1976 59.0994 20.1976C57.4578 20.1976 56.3413 19.0144 56.3413 17.1165Z" fill="#92DAEC"/>
<path d="M75.5204 13.2556C75.4955 12.7923 75.3703 12.3417 75.1323 11.916L73.0284 8.26024C72.8656 7.9847 72.7528 7.68447 72.6902 7.37134L72.6026 7.52145C72.0767 8.42298 72.0767 9.5372 72.6026 10.4384L74.2934 13.3554C74.8193 14.257 74.8193 15.3712 74.2934 16.2724L74.2058 16.4226C74.1432 16.122 74.0304 15.8215 73.8676 15.5337L72.3273 12.8543L71.3379 11.1517C71.1751 10.8762 71.0623 10.5759 70.9997 10.2628L70.9122 10.4129C70.3862 11.3144 70.3862 12.4287 70.9122 13.3299L72.6029 16.2595C73.1289 17.1611 73.1289 18.2753 72.6029 19.1765L72.5153 19.3266C72.4527 19.0261 72.3399 18.7256 72.1771 18.4377L70.0732 14.782C69.7853 14.2937 69.6601 13.7429 69.6851 13.1919C67.431 13.7803 65.8655 15.0322 65.8655 16.4846C65.8655 18.5003 68.8835 20.1404 72.6029 20.1404C76.3223 20.1404 79.3403 18.5003 79.3403 16.4846C79.3274 15.1086 77.7745 13.8566 75.5204 13.2556ZM81.8697 19.4905C81.8947 18.9773 81.9699 18.6142 82.1077 18.2136C82.8214 18.539 83.7232 18.7018 84.4246 18.7018C85.6017 18.7018 86.2529 18.3261 86.2529 17.5749C86.2529 16.8364 85.7771 16.4983 84.5874 15.9848L83.9362 15.7093C82.7465 15.1961 81.9326 14.5199 81.9326 13.1804C81.9326 11.7407 82.9343 10.8142 84.9755 10.8142C85.8021 10.8142 86.5661 10.927 87.2922 11.1772C87.2546 11.6781 87.167 12.0788 87.0418 12.4416C86.3531 12.1913 85.5515 12.0785 84.9629 12.0785C83.861 12.0785 83.36 12.5041 83.36 13.1801C83.36 13.8437 83.8484 14.2191 84.7375 14.5948L85.4263 14.8827C87.0292 15.5713 87.7056 16.2848 87.7056 17.5118C87.7056 18.9641 86.6037 19.9655 84.4496 19.9655C83.435 19.9787 82.5834 19.8283 81.8697 19.4905ZM94.518 13.4559V19.7784H93.2406L93.1654 19.0146C92.8149 19.5654 92.2639 19.9285 91.3871 19.9285C89.7216 19.9285 88.6071 18.7141 88.6071 16.5859C88.6071 14.3574 89.7969 13.0928 92.1387 13.0928C93.0276 13.0928 93.779 13.193 94.518 13.4559ZM93.1152 18.3387V14.3698C92.8272 14.3198 92.514 14.2946 92.1132 14.2946C90.6731 14.2946 89.9967 15.1835 89.9967 16.5982C89.9967 17.8878 90.51 18.8017 91.75 18.8017C92.3139 18.7893 92.752 18.614 93.1152 18.3387ZM101.631 15.5216V19.7658H100.241V15.7595C100.241 14.7578 99.9152 14.2822 98.525 14.2822C98.1995 14.2822 97.7987 14.3198 97.4229 14.3824V19.7658H96.0327V13.4435C96.9219 13.2309 97.8862 13.0931 98.5624 13.0931C100.892 13.0928 101.631 13.9943 101.631 15.5216ZM105.488 18.7391C105.889 18.7391 106.277 18.6639 106.578 18.5514C106.54 18.9271 106.49 19.3651 106.415 19.7282C106.039 19.8783 105.626 19.9285 105.238 19.9285C103.885 19.9285 103.021 19.3025 103.021 17.7626V11.1273C103.447 10.9895 103.985 10.927 104.411 10.927V13.3181H106.615C106.59 13.7438 106.553 14.1445 106.49 14.5075H104.411V17.5999C104.411 18.4262 104.824 18.7391 105.488 18.7391ZM112.952 13.4559V19.7784H111.675L111.599 19.0146C111.249 19.5654 110.698 19.9285 109.821 19.9285C108.156 19.9285 107.041 18.7141 107.041 16.5859C107.041 14.3574 108.231 13.0928 110.572 13.0928C111.474 13.0928 112.226 13.193 112.952 13.4559ZM111.562 18.3387V14.3698C111.274 14.3198 110.961 14.2946 110.56 14.2946C109.12 14.2946 108.443 15.1835 108.443 16.5982C108.443 17.8878 108.957 18.8017 110.197 18.8017C110.748 18.7893 111.199 18.614 111.562 18.3387ZM120.077 15.5216V19.7658H118.687V15.7595C118.687 14.7578 118.362 14.2822 116.972 14.2822C116.646 14.2822 116.245 14.3198 115.87 14.3824V19.7658H114.48V13.4435C115.369 13.2309 116.333 13.0931 117.009 13.0931C119.326 13.0928 120.077 13.9943 120.077 15.5216ZM127.14 10.927V19.7784H125.851L125.775 18.9647C125.425 19.5531 124.874 19.9288 123.972 19.9288C122.307 19.9288 121.192 18.7144 121.192 16.5861C121.192 14.3577 122.382 13.0931 124.723 13.0931C125.087 13.0931 125.437 13.1307 125.763 13.1933V11.1026C126.189 10.9646 126.677 10.927 127.14 10.927ZM125.751 18.3011V14.4074C125.387 14.3322 124.999 14.2822 124.636 14.2822C123.259 14.2822 122.595 15.1462 122.595 16.5859C122.595 17.8754 123.108 18.7893 124.348 18.7893C124.924 18.7893 125.375 18.6016 125.751 18.3011ZM134.129 17.0741H129.683C129.858 18.2009 130.522 18.7391 131.762 18.7391C132.526 18.7391 133.29 18.5764 133.991 18.2632C133.94 18.6263 133.866 19.1145 133.778 19.5278C133.139 19.8157 132.475 19.9285 131.724 19.9285C129.395 19.9285 128.267 18.6389 128.267 16.4731C128.267 14.5951 129.144 13.0928 131.348 13.0928C133.339 13.0928 134.191 14.3947 134.191 15.9848C134.204 16.3855 134.178 16.6987 134.129 17.0741ZM129.67 15.9099H132.801C132.801 14.8709 132.25 14.2699 131.286 14.2699C130.296 14.2573 129.783 14.833 129.67 15.9099ZM139 13.143C139 13.5561 138.95 14.0695 138.875 14.3325C138.549 14.2949 138.211 14.2822 137.823 14.2822C137.485 14.2822 137.134 14.3072 136.796 14.3574V19.7658H135.406V13.4435C135.994 13.2432 136.996 13.0931 137.785 13.0931C138.211 13.0928 138.699 13.1054 139 13.143Z" fill="#92DAEC"/>
</g>
<defs>
<clipPath id="clip0">
<rect width="139" height="33" fill="white"/>
</clipPath>
</defs>
</svg>
