<svg width="363" height="81" viewBox="0 0 363 81" fill="none" xmlns="http://www.w3.org/2000/svg">
<g clip-path="url(#clip0)">
<path d="M39.2554 27.6747C31.965 27.6747 26.0073 33.648 26.0073 41.0186C26.0073 48.3617 31.9377 54.3625 39.2554 54.3625C46.5458 54.3625 52.5035 48.3893 52.5035 41.0186C52.5035 33.648 46.5732 27.6747 39.2554 27.6747Z" fill="white"/>
<path d="M11.2623 17.4542C11.181 17.5912 11.181 17.7827 11.2897 17.9197C11.3444 17.9748 11.3984 18.0292 11.4531 18.0843L25.4903 26.3042L25.5176 26.3317C25.6537 26.4137 25.8438 26.4137 26.0072 26.3042C26.0619 26.2766 26.0886 26.2222 26.1159 26.1947C26.1433 26.1671 26.1433 26.1396 26.1433 26.1396C27.4493 23.8379 29.2449 21.7552 31.5294 20.1388C33.8419 18.4948 36.3718 17.481 38.9832 17.0148C39.0105 17.0148 39.0105 17.0148 39.0379 17.0148C39.0926 17.0148 39.1466 16.9872 39.2013 16.9328C39.3374 16.8233 39.4187 16.6587 39.3914 16.4941V16.4665L36.4259 0.411164V0.383615C36.4259 0.328518 36.3985 0.246561 36.3445 0.192152C36.2358 0.0550974 36.0723 0 35.9363 0C35.9089 0 35.9089 0 35.9089 0C30.9577 0.904285 26.0339 2.90432 21.6543 6.02834C17.2474 9.09726 13.7649 13.0429 11.2623 17.4542Z" fill="#A21C81"/>
<path d="M3.26443 48.4987C3.31913 48.6358 3.48187 48.7453 3.64529 48.7729C3.72666 48.7729 3.80871 48.7729 3.86273 48.7453L19.0151 42.8816H19.0425C19.2059 42.8265 19.3146 42.6626 19.3146 42.498C19.3146 42.4429 19.3146 42.3884 19.2873 42.3333C19.2873 42.3058 19.2599 42.2783 19.2599 42.2514C18.2808 39.7851 17.8179 37.0729 17.9813 34.2506C18.1447 31.4282 18.9604 28.7704 20.2117 26.4412C20.2117 26.4137 20.2391 26.4137 20.2391 26.3861C20.2664 26.331 20.2664 26.2766 20.2938 26.2215C20.2938 26.0294 20.2124 25.8654 20.0764 25.7828L20.049 25.7552L5.74037 18.0292H5.71302C5.65832 18.0017 5.57695 17.9741 5.52293 17.9741C5.35951 17.9741 5.19677 18.0561 5.11472 18.1931C5.11472 18.1931 5.11472 18.2207 5.08737 18.2207C2.69348 22.6877 1.14268 27.7842 0.843189 33.1824C0.517029 38.5798 1.41482 43.7859 3.26443 48.4987Z" fill="#005299"/>
<path d="M22.4975 74.0088C22.6609 74.0364 22.8237 74.0088 22.9331 73.8718C22.9878 73.8167 23.0145 73.7347 23.0418 73.6803L27.8569 58.0623V58.0347C27.9116 57.8701 27.8569 57.6787 27.7209 57.5692C27.6662 57.5416 27.6395 57.5141 27.5848 57.4872C27.5574 57.4872 27.5301 57.4596 27.5034 57.4596C24.9735 56.6924 22.5796 55.4045 20.4845 53.514C18.3894 51.6235 16.8393 49.3493 15.8054 46.9106C15.8054 46.883 15.8054 46.883 15.7781 46.8555C15.7507 46.8004 15.7234 46.746 15.6694 46.7184C15.5333 46.6089 15.3432 46.5814 15.2071 46.6365H15.1798L0.299518 53.1297H0.272167C0.217465 53.1572 0.163447 53.1848 0.108745 53.2392C2.53808e-05 53.3762 -0.0273255 53.5409 0.0273763 53.6779C0.0273763 53.6779 0.0273763 53.7055 0.0547272 53.7055C2.0404 58.3632 5.05995 62.7476 9.05933 66.3648C13.0854 70.0081 17.6824 72.557 22.4975 74.0088Z" fill="#008ACF"/>
<path d="M54.1356 74.7761C54.2717 74.6666 54.3264 74.5019 54.3264 74.3373C54.3264 74.2554 54.299 74.2003 54.245 74.1183L45.2131 60.5554L45.1857 60.5279C45.077 60.3908 44.9136 60.3089 44.7501 60.3364C44.6954 60.3364 44.6414 60.364 44.5867 60.3915C44.5594 60.3915 44.532 60.4191 44.532 60.4466C42.3556 61.9535 39.853 63.0224 37.0782 63.4604C34.3035 63.926 31.5561 63.7346 29.0261 62.9949C28.9987 62.9949 28.9987 62.9949 28.9714 62.9673C28.9167 62.9673 28.8627 62.9398 28.808 62.9673C28.6179 62.9949 28.4818 63.1319 28.4545 63.2958V63.3234L24.1289 79.0785V79.106C24.1016 79.1611 24.1016 79.2431 24.1289 79.2982C24.1563 79.4628 24.265 79.5998 24.4284 79.6542H24.4558C29.2982 81.0241 34.5756 81.4077 39.8803 80.531C45.1584 79.6536 49.9735 77.6528 54.1356 74.7761Z" fill="#009540"/>
<path d="M74.7562 50.4444C74.7562 50.2798 74.6748 50.1159 74.5388 50.0332C74.4841 50.0057 74.4027 49.9781 74.3213 49.9781L58.1351 48.7178H58.1077C57.9443 48.7178 57.7815 48.7997 57.6995 48.9643C57.6721 49.0194 57.6448 49.0738 57.6448 49.1289C57.6448 49.1565 57.6448 49.184 57.6448 49.2109C57.4814 51.8687 56.747 54.4989 55.387 56.9652C54.0269 59.4583 52.1767 61.4866 50.0276 63.0204C50.0002 63.0204 50.0002 63.0479 49.9729 63.0479C49.9181 63.0755 49.8915 63.1299 49.8641 63.185C49.7828 63.3496 49.7828 63.541 49.8915 63.6781L49.9188 63.7056L59.5217 76.8856L59.5491 76.9132C59.5764 76.9683 59.6305 77.0227 59.7125 77.0502C59.8759 77.1322 60.0387 77.1053 60.1747 77.0227L60.2021 76.9951C64.2829 74.0081 67.8467 70.0625 70.458 65.3496C72.9606 60.583 74.4027 55.5133 74.7562 50.4444Z" fill="#FBE800"/>
<path d="M68.6352 18.9886C68.4992 18.8791 68.3357 18.8516 68.173 18.9067C68.0916 18.9342 68.0369 18.9886 67.9822 19.0437L56.8292 30.9076L56.8019 30.9351C56.6931 31.0722 56.6658 31.2368 56.7205 31.4007C56.7478 31.4558 56.7752 31.5102 56.8019 31.5377C56.8292 31.5653 56.8292 31.5653 56.8566 31.5928C58.7882 33.4014 60.3657 35.648 61.4269 38.2513C62.4881 40.8816 62.8956 43.622 62.7329 46.2797C62.7329 46.3073 62.7329 46.3073 62.7329 46.3348C62.7329 46.3899 62.7329 46.4443 62.7603 46.4994C62.8416 46.664 62.9777 46.7735 63.1411 46.7735H63.1685L79.3821 47.5683H79.4094C79.4641 47.5683 79.5455 47.5683 79.6002 47.5408C79.7636 47.4857 79.845 47.3218 79.8724 47.1847V47.1571C80.1445 42.0882 79.3554 36.8271 77.3424 31.8125C75.328 26.7704 72.3351 22.4412 68.6352 18.9886Z" fill="#F08712"/>
<path d="M40.262 4.38436C40.0985 4.41191 39.9625 4.52142 39.9085 4.68602C39.8811 4.76798 39.8811 4.85062 39.9085 4.90503L42.275 21.0713V21.0988C42.3023 21.2634 42.4384 21.4005 42.6011 21.4549C42.6559 21.4824 42.7099 21.4824 42.7646 21.4824C42.7919 21.4824 42.8193 21.4824 42.8459 21.4824C45.4573 21.0713 48.178 21.1808 50.8714 21.9756C53.5648 22.7703 55.9587 24.1402 57.9443 25.8937C57.9443 25.8937 57.9717 25.9212 57.999 25.9212C58.0537 25.9488 58.1077 25.9763 58.1625 26.0032C58.3259 26.0583 58.516 26.0032 58.6247 25.8661L58.652 25.8386L69.2615 13.4809L69.2888 13.4534C69.3435 13.3983 69.3702 13.3439 69.3702 13.2888C69.4249 13.1242 69.3702 12.9603 69.2615 12.8501L69.2341 12.8225C65.4528 9.47949 60.8285 6.84928 55.6865 5.36923C50.4632 3.86369 45.2398 3.58958 40.262 4.38436Z" fill="#E5282B"/>
<path d="M39.2553 27.4826C31.8555 27.4826 25.8164 33.5378 25.8164 41.0186C25.8164 48.4712 31.8281 54.5271 39.2553 54.5271C46.6551 54.5271 52.6668 48.4719 52.6668 41.0186C52.6935 33.5385 46.6817 27.4826 39.2553 27.4826ZM49.0216 48.6358C49.2391 48.0876 49.2938 47.4574 49.3478 46.9368C49.0756 47.1833 48.7768 47.4299 48.4773 47.6764C47.5522 48.3617 46.5457 48.7997 45.5939 48.9919L43.0092 46.142L42.9818 46.1695L44.8588 49.5126C44.3692 50.3893 43.6348 51.2116 42.7097 51.8962C42.3835 52.1152 42.0841 52.3349 41.7579 52.4988C42.2475 52.5808 42.8731 52.7178 43.4448 52.6903C42.1388 53.1559 40.7514 53.4024 39.2826 53.4024C37.8139 53.4024 36.4265 53.1559 35.1205 52.6903C35.6915 52.7178 36.3178 52.5808 36.8074 52.4988C36.4812 52.3342 36.1544 52.1152 35.8556 51.8962C34.9304 51.2109 34.196 50.3893 33.7065 49.5126L35.5834 46.142L35.5561 46.1144L32.9447 48.9643C31.9929 48.7729 30.9857 48.3342 30.0613 47.6489C29.7351 47.4299 29.463 47.1833 29.1908 46.9092C29.2455 47.4023 29.3269 48.0601 29.517 48.6083C27.8848 46.4987 26.9057 43.8678 26.9057 40.9911C26.9057 40.854 26.9057 40.717 26.9057 40.5799C27.0417 41.155 27.3952 41.7308 27.64 42.1963C27.6947 41.8403 27.8034 41.4566 27.9122 41.073C28.2657 39.9497 28.8373 38.9903 29.517 38.2507L33.2442 39.0179L33.2716 38.9628L29.7891 37.3732C29.6804 36.387 29.7891 35.3181 30.1426 34.2224C30.2514 33.8387 30.4148 33.4827 30.5782 33.1535C30.116 33.3725 29.463 33.6466 29.0001 34.0578C30.6049 31.619 33.0535 29.7836 35.9369 28.9888C35.3926 29.3173 34.9304 29.838 34.5496 30.2216C34.9031 30.1665 35.2839 30.1396 35.6921 30.1396C36.8347 30.1396 37.9226 30.3862 38.8204 30.7974L39.256 34.5784H39.3107L39.7462 30.7974C40.644 30.3862 41.7052 30.1396 42.8745 30.1396C43.2554 30.1396 43.6362 30.1672 44.0171 30.2216C43.6362 29.838 43.174 29.2898 42.6571 28.9888C45.5132 29.8111 47.9618 31.619 49.5939 34.0578C49.1317 33.6466 48.506 33.3725 48.0158 33.1535C48.1792 33.482 48.3153 33.8387 48.4513 34.2224C48.8049 35.3181 48.9136 36.4145 48.8049 37.3732L45.3497 38.9628L45.3771 39.0179L49.077 38.2507C49.7574 38.9903 50.301 39.9497 50.6818 41.073C50.7905 41.4566 50.8993 41.8127 50.954 42.1963C51.1987 41.7308 51.5249 41.1825 51.6883 40.5799C51.6883 40.717 51.6883 40.854 51.6883 40.9635C51.6056 43.8685 50.6538 46.5263 49.0216 48.6358Z" fill="#0A0C0D"/>
<path d="M33.8413 39.2376L35.909 45.6495H42.6285L44.6962 39.2376L39.2821 35.2644L33.8413 39.2376Z" fill="#0A0C0D"/>
<path d="M97.3953 30.1472V48.2866H107.733V44.1764H102.074V30.1472H97.3953Z" fill="white"/>
<path d="M116.356 37.5454C114.262 37.5454 112.929 39.1074 112.929 41.0255C112.929 43.0531 114.18 44.6971 116.193 44.6971C118.125 44.6971 119.757 43.2446 119.757 41.135C119.757 38.9979 118.261 37.5454 116.356 37.5454ZM108.522 41.0799C108.522 37.0248 111.487 33.4627 115.486 33.4627C117.227 33.4627 118.342 34.0653 119.621 35.2437V33.7368H123.919V48.2867H119.539V46.8617C119.539 46.8617 117.961 48.6427 115.241 48.6427C111.242 48.6427 108.522 45.7384 108.522 41.0799Z" fill="white"/>
<path d="M136.841 48.2866H126.503V30.1472H131.182V44.1764H136.841V48.2866Z" fill="white"/>
<path d="M143.125 48.2866H138.772V33.7368H143.125V48.2866V48.2866ZM138.364 30.0377C138.364 28.5583 139.534 27.3524 140.976 27.3524C142.418 27.3524 143.614 28.5032 143.614 29.9826C143.614 31.462 142.417 32.6955 140.921 32.6955C139.507 32.6955 138.364 31.5446 138.364 30.0377Z" fill="white"/>
<path d="M152.293 37.2169C150.252 37.2169 149.246 38.8884 149.246 40.697C149.246 42.56 150.334 44.0944 152.265 44.0944C154.442 44.0944 155.612 42.341 155.612 40.697C155.611 38.7782 154.523 37.2169 152.293 37.2169ZM145.001 40.7238C145.001 36.7782 147.477 33.4627 151.259 33.4627C153.082 33.4627 154.333 34.0653 155.557 35.3808V33.7368H159.719V46.56C159.719 51.0539 156.373 53.41 152.347 53.41C148.81 53.41 145.736 51.6014 145.274 48.3411H150.17C150.768 49.3273 151.394 49.5194 152.455 49.5194C153.979 49.5194 155.366 48.8073 155.366 47.2178C155.366 46.8341 155.393 46.5056 155.339 46.122C154.496 46.8892 152.918 47.7935 151.231 47.7935C147.531 47.8204 145.001 44.6971 145.001 40.7238Z" fill="white"/>
<path d="M169.458 37.5454C167.364 37.5454 166.03 39.1074 166.03 41.0255C166.03 43.0531 167.282 44.6971 169.295 44.6971C171.226 44.6971 172.858 43.2446 172.858 41.135C172.858 38.9979 171.362 37.5454 169.458 37.5454ZM161.623 41.0799C161.623 37.0248 164.589 33.4627 168.588 33.4627C170.328 33.4627 171.444 34.0653 172.722 35.2437V33.7368H177.02V48.2867H172.641V46.8617C172.641 46.8617 171.063 48.6427 168.343 48.6427C164.343 48.6427 161.623 45.7384 161.623 41.0799Z" fill="white"/>
<path d="M208.348 32.5364C208.288 31.3993 207.983 30.2932 207.403 29.2484L202.277 20.2751C201.881 19.5988 201.606 18.8619 201.453 18.0933L201.24 18.4618C199.959 20.6746 199.959 23.4095 201.24 25.6217L205.359 32.7816C206.64 34.9944 206.64 37.7293 205.359 39.9415L205.146 40.3099C204.993 39.5723 204.718 38.8347 204.322 38.1281L200.569 31.5515L198.159 27.3724C197.762 26.6961 197.487 25.9591 197.335 25.1905L197.122 25.559C195.84 27.7718 195.84 30.5067 197.122 32.7189L201.241 39.9098C202.522 42.1226 202.522 44.8575 201.241 47.0697L201.027 47.4381C200.875 46.7005 200.6 45.9629 200.203 45.2563L195.078 36.283C194.376 35.0846 194.071 33.7327 194.132 32.38C188.641 33.8243 184.827 36.8973 184.827 40.4621C184.827 45.4099 192.179 49.4354 201.241 49.4354C210.302 49.4354 217.655 45.4099 217.655 40.4621C217.623 37.0847 213.84 34.0116 208.348 32.5364ZM223.817 47.8403C223.878 46.5807 224.061 45.6895 224.397 44.706C226.135 45.5049 228.332 45.9044 230.041 45.9044C232.909 45.9044 234.495 44.9822 234.495 43.1385C234.495 41.3258 233.336 40.4959 230.438 39.2355L228.851 38.5592C225.953 37.2995 223.97 35.6397 223.97 32.3518C223.97 28.818 226.41 26.5438 231.383 26.5438C233.397 26.5438 235.258 26.8207 237.027 27.435C236.936 28.6644 236.722 29.6479 236.417 30.5384C234.739 29.9241 232.787 29.6472 231.353 29.6472C228.668 29.6472 227.448 30.692 227.448 32.3511C227.448 33.9799 228.637 34.9014 230.804 35.8236L232.482 36.5302C236.387 38.2204 238.034 39.9718 238.034 42.9835C238.034 46.5483 235.35 49.0063 230.102 49.0063C227.63 49.0387 225.556 48.6696 223.817 47.8403ZM254.631 33.0281V48.547H251.519L251.336 46.6723C250.482 48.0242 249.14 48.9154 247.004 48.9154C242.946 48.9154 240.231 45.9347 240.231 40.7108C240.231 35.241 243.129 32.1369 248.835 32.1369C251 32.1369 252.831 32.3828 254.631 33.0281ZM251.214 45.0132V35.2713C250.512 35.1487 249.749 35.0867 248.772 35.0867C245.264 35.0867 243.616 37.2685 243.616 40.7411C243.616 43.9064 244.867 46.1496 247.888 46.1496C249.261 46.1192 250.329 45.6888 251.214 45.0132ZM271.96 38.0985V48.516H268.573V38.6825C268.573 36.2238 267.78 35.0564 264.393 35.0564C263.6 35.0564 262.624 35.1487 261.708 35.3023V48.516H258.321V32.9978C260.488 32.4758 262.837 32.1376 264.484 32.1376C270.16 32.1369 271.96 34.3498 271.96 38.0985ZM281.357 45.996C282.333 45.996 283.279 45.8114 284.011 45.5352C283.92 46.4574 283.798 47.5325 283.615 48.4237C282.699 48.7922 281.693 48.9154 280.747 48.9154C277.452 48.9154 275.347 47.3789 275.347 43.5992V27.3125C276.384 26.9743 277.696 26.8207 278.733 26.8207V32.69H284.103C284.042 33.7347 283.951 34.7182 283.798 35.6094H278.733V43.1998C278.733 45.228 279.74 45.996 281.357 45.996ZM299.541 33.0281V48.547H296.429L296.245 46.6723C295.391 48.0242 294.048 48.9154 291.913 48.9154C287.856 48.9154 285.14 45.9347 285.14 40.7108C285.14 35.241 288.038 32.1369 293.744 32.1369C295.94 32.1369 297.771 32.3828 299.541 33.0281ZM296.154 45.0132V35.2713C295.452 35.1487 294.689 35.0867 293.713 35.0867C290.204 35.0867 288.556 37.2685 288.556 40.7411C288.556 43.9064 289.807 46.1496 292.828 46.1496C294.171 46.1192 295.269 45.6888 296.154 45.0132ZM316.9 38.0985V48.516H313.513V38.6825C313.513 36.2238 312.72 35.0564 309.334 35.0564C308.54 35.0564 307.564 35.1487 306.649 35.3023V48.516H303.262V32.9978C305.429 32.4758 307.778 32.1376 309.425 32.1376C315.07 32.1369 316.9 34.3498 316.9 38.0985ZM334.107 26.8207V48.547H330.965L330.781 46.5497C329.927 47.9939 328.584 48.9161 326.388 48.9161C322.331 48.9161 319.615 45.9354 319.615 40.7114C319.615 35.2417 322.514 32.1376 328.219 32.1376C329.103 32.1376 329.957 32.2299 330.751 32.3835V27.2518C331.789 26.913 332.978 26.8207 334.107 26.8207ZM330.721 44.9209V35.3636C329.836 35.179 328.891 35.0564 328.006 35.0564C324.65 35.0564 323.033 37.1769 323.033 40.7108C323.033 43.8761 324.284 46.1192 327.304 46.1192C328.708 46.1192 329.806 45.6585 330.721 44.9209ZM351.132 41.9091H340.301C340.728 44.675 342.345 45.996 345.366 45.996C347.227 45.996 349.088 45.5965 350.796 44.8279C350.674 45.7191 350.491 46.9175 350.277 47.9319C348.721 48.6386 347.104 48.9154 345.273 48.9154C339.599 48.9154 336.853 45.7501 336.853 40.4339C336.853 35.8243 338.988 32.1369 344.358 32.1369C349.208 32.1369 351.283 35.3326 351.283 39.2355C351.315 40.219 351.254 40.9876 351.132 41.9091ZM340.27 39.0516H347.898C347.898 36.5013 346.555 35.0261 344.206 35.0261C341.796 34.9951 340.545 36.4083 340.27 39.0516ZM363 32.2602C363 33.274 362.878 34.5343 362.695 35.1797C361.902 35.0874 361.078 35.0564 360.132 35.0564C359.308 35.0564 358.454 35.1177 357.63 35.241V48.516H354.244V32.9978C355.678 32.5061 358.119 32.1376 360.041 32.1376C361.078 32.1369 362.268 32.1679 363 32.2602Z" fill="#E5282C"/>
</g>
<defs>
<clipPath id="clip0">
<rect width="363" height="81" fill="white"/>
</clipPath>
</defs>
</svg>
