<svg width="330" height="79" viewBox="0 0 330 79" fill="none" xmlns="http://www.w3.org/2000/svg">
<g clip-path="url(#clip0)">
<path d="M30.9604 30.6278C25.2105 30.6278 20.5117 35.3438 20.5117 41.1632C20.5117 46.9608 25.1889 51.6986 30.9604 51.6986C36.7102 51.6986 41.409 46.9825 41.409 41.1632C41.409 35.3438 36.7318 30.6278 30.9604 30.6278Z" fill="#F4FCC8"/>
<path d="M8.88264 22.5583C8.81847 22.6665 8.81847 22.8177 8.90421 22.9259C8.94735 22.9694 8.98996 23.0124 9.0331 23.0559L20.1041 29.5457L20.1256 29.5674C20.233 29.6321 20.3829 29.6321 20.5118 29.5457C20.5549 29.5239 20.5759 29.481 20.5975 29.4592C20.6191 29.4375 20.6191 29.4157 20.6191 29.4157C21.6491 27.5985 23.0653 25.9541 24.867 24.6779C26.6909 23.38 28.6862 22.5795 30.7458 22.2114C30.7673 22.2114 30.7673 22.2114 30.7889 22.2114C30.8321 22.2114 30.8747 22.1897 30.9178 22.1467C31.0251 22.0603 31.0893 21.9303 31.0677 21.8003V21.7786L28.7288 9.1024V9.08065C28.7288 9.03715 28.7073 8.97244 28.6647 8.92948C28.5789 8.82127 28.45 8.77777 28.3427 8.77777C28.3211 8.77777 28.3211 8.77777 28.3211 8.77777C24.4162 9.49173 20.5328 11.0708 17.0787 13.5373C13.603 15.9603 10.8564 19.0755 8.88264 22.5583Z" fill="#F4FCC8"/>
<path d="M2.57457 47.069C2.61772 47.1772 2.74607 47.2636 2.87496 47.2854C2.93913 47.2854 3.00385 47.2854 3.04645 47.2636L14.997 42.634H15.0186C15.1475 42.5905 15.2332 42.4611 15.2332 42.3312C15.2332 42.2877 15.2332 42.2447 15.2116 42.2012C15.2116 42.1794 15.1901 42.1577 15.1901 42.1365C14.4178 40.1893 14.0527 38.0479 14.1816 35.8196C14.3105 33.5913 14.9539 31.4929 15.9407 29.6539C15.9407 29.6321 15.9623 29.6321 15.9623 29.6104C15.9839 29.5669 15.9839 29.5239 16.0055 29.4804C16.0055 29.3287 15.9413 29.1993 15.834 29.134L15.8124 29.1123L4.52732 23.0124H4.50575C4.46261 22.9906 4.39843 22.9689 4.35583 22.9689C4.22694 22.9689 4.09859 23.0336 4.03388 23.1418C4.03388 23.1418 4.03388 23.1635 4.01231 23.1635C2.12427 26.6904 0.901175 30.7142 0.664968 34.9762C0.40773 39.2377 1.11581 43.348 2.57457 47.069Z" fill="#F4FCC8"/>
<path d="M17.7436 67.2099C17.8724 67.2317 18.0008 67.2099 18.0871 67.1017C18.1302 67.0582 18.1513 66.9935 18.1728 66.9505L21.9705 54.6196V54.5979C22.0136 54.4679 21.9705 54.3168 21.8631 54.2303C21.82 54.2086 21.799 54.1868 21.7558 54.1656C21.7343 54.1656 21.7127 54.1439 21.6917 54.1439C19.6963 53.5381 17.8083 52.5213 16.1559 51.0286C14.5035 49.536 13.281 47.7405 12.4656 45.815C12.4656 45.7933 12.4656 45.7933 12.444 45.7715C12.4224 45.728 12.4009 45.6851 12.3583 45.6633C12.2509 45.5769 12.101 45.5551 11.9937 45.5986H11.9721L0.236227 50.7252H0.214655C0.171512 50.747 0.128909 50.7687 0.0857662 50.8117C2.00176e-05 50.9199 -0.0215514 51.0498 0.0215914 51.1581C0.0215914 51.1581 0.0215914 51.1798 0.0431628 51.1798C1.60924 54.8573 3.99072 58.3189 7.145 61.1747C10.3203 64.0512 13.9459 66.0637 17.7436 67.2099Z" fill="#F4FCC8"/>
<path d="M42.6963 67.8157C42.8036 67.7292 42.8468 67.5992 42.8468 67.4693C42.8468 67.4046 42.8252 67.3611 42.7826 67.2964L35.6592 56.5881L35.6376 56.5663C35.5519 56.4581 35.423 56.3934 35.2941 56.4151C35.2509 56.4151 35.2083 56.4369 35.1652 56.4586C35.1436 56.4586 35.1221 56.4804 35.1221 56.5021C33.4055 57.6919 31.4317 58.5358 29.2433 58.8816C27.0549 59.2492 24.888 59.0981 22.8927 58.5141C22.8711 58.5141 22.8711 58.5141 22.8496 58.4923C22.8064 58.4923 22.7638 58.4706 22.7207 58.4923C22.5707 58.5141 22.4634 58.6223 22.4419 58.7517V58.7734L19.0303 71.2125V71.2343C19.0088 71.2778 19.0088 71.3425 19.0303 71.386C19.0519 71.516 19.1377 71.6242 19.2665 71.6671H19.2881C23.1073 72.7487 27.2695 73.0515 31.4533 72.3593C35.616 71.6666 39.4137 70.087 42.6963 67.8157Z" fill="#F4FCC8"/>
<path d="M58.9593 48.6051C58.9593 48.4751 58.8952 48.3457 58.7878 48.2805C58.7447 48.2587 58.6805 48.237 58.6164 48.237L45.8504 47.2419H45.8288C45.6999 47.2419 45.5716 47.3066 45.5069 47.4366C45.4853 47.4801 45.4637 47.523 45.4637 47.5665C45.4637 47.5883 45.4637 47.61 45.4637 47.6312C45.3349 49.7296 44.7557 51.8062 43.683 53.7534C42.6104 55.7218 41.1511 57.3232 39.4561 58.5342C39.4345 58.5342 39.4345 58.5559 39.413 58.5559C39.3698 58.5777 39.3488 58.6206 39.3272 58.6641C39.263 58.7941 39.263 58.9453 39.3488 59.0535L39.3704 59.0752L46.9441 69.4812L46.9656 69.503C46.9872 69.5465 47.0298 69.5894 47.0945 69.6112C47.2234 69.6759 47.3518 69.6547 47.4591 69.5894L47.4807 69.5677C50.6991 67.2094 53.5099 64.0942 55.5694 60.3732C57.5432 56.6098 58.6805 52.6072 58.9593 48.6051Z" fill="#F4FCC8"/>
<path d="M54.1318 23.7698C54.0244 23.6834 53.8955 23.6616 53.7672 23.7051C53.703 23.7269 53.6599 23.7698 53.6167 23.8133L44.8205 33.1802L44.7989 33.2019C44.7132 33.3102 44.6916 33.4401 44.7347 33.5695C44.7563 33.613 44.7779 33.656 44.7989 33.6777C44.8205 33.6995 44.8205 33.6995 44.842 33.7212C46.3655 35.1492 47.6097 36.9229 48.4466 38.9783C49.2836 41.055 49.605 43.2186 49.4767 45.317C49.4767 45.3387 49.4767 45.3387 49.4767 45.3605C49.4767 45.404 49.4767 45.4469 49.4982 45.4904C49.5624 45.6204 49.6697 45.7068 49.7986 45.7068H49.8202L62.6077 46.3343H62.6293C62.6724 46.3343 62.7366 46.3343 62.7797 46.3126C62.9086 46.2691 62.9728 46.1397 62.9944 46.0315V46.0097C63.209 42.0076 62.5867 37.8538 60.999 33.8947C59.4103 29.9138 57.0498 26.4957 54.1318 23.7698Z" fill="#F4FCC8"/>
<path d="M31.7542 12.2394C31.6253 12.2611 31.518 12.3476 31.4754 12.4775C31.4538 12.5422 31.4538 12.6075 31.4754 12.6504L33.3419 25.4142V25.4359C33.3634 25.5659 33.4708 25.6741 33.5991 25.7171C33.6423 25.7388 33.6849 25.7388 33.728 25.7388C33.7496 25.7388 33.7711 25.7388 33.7922 25.7388C35.8517 25.4142 37.9975 25.5006 40.1218 26.1281C42.246 26.7556 44.134 27.8372 45.7001 29.2216C45.7001 29.2216 45.7217 29.2434 45.7433 29.2434C45.7864 29.2651 45.829 29.2869 45.8721 29.3081C46.001 29.3516 46.151 29.3081 46.2367 29.1998L46.2583 29.1781L54.6258 19.4214L54.6474 19.3996C54.6905 19.3561 54.7116 19.3132 54.7116 19.2697C54.7547 19.1397 54.7116 19.0103 54.6258 18.9233L54.6042 18.9015C51.622 16.2621 47.9748 14.1855 43.9194 13.0169C39.7998 11.8283 35.6802 11.6119 31.7542 12.2394Z" fill="#F4FCC8"/>
<path d="M30.9602 30.4761C25.124 30.4761 20.3611 35.2568 20.3611 41.1632C20.3611 47.0472 25.1025 51.8285 30.9602 51.8285C36.7963 51.8285 41.5377 47.0478 41.5377 41.1632C41.5587 35.2574 36.8173 30.4761 30.9602 30.4761ZM38.6628 47.1772C38.8343 46.7443 38.8774 46.2468 38.92 45.8357C38.7054 46.0304 38.4697 46.2251 38.2335 46.4197C37.5039 46.9608 36.71 47.3066 35.9593 47.4583L33.9209 45.2082L33.8993 45.23L35.3796 47.8694C34.9935 48.5616 34.4143 49.2109 33.6846 49.7514C33.4274 49.9243 33.1912 50.0977 32.934 50.2271C33.3201 50.2919 33.8135 50.4001 34.2644 50.3783C33.2343 50.7459 32.1401 50.9406 30.9818 50.9406C29.8234 50.9406 28.7292 50.7459 27.6991 50.3783C28.1494 50.4001 28.6434 50.2919 29.0295 50.2271C28.7723 50.0972 28.5145 49.9243 28.2789 49.7514C27.5492 49.2103 26.97 48.5616 26.5839 47.8694L28.0642 45.2082L28.0427 45.1865L25.9831 47.4366C25.2324 47.2854 24.4381 46.939 23.709 46.398C23.4517 46.2251 23.2371 46.0304 23.0225 45.814C23.0656 46.2033 23.1298 46.7226 23.2797 47.1554C21.9924 45.4899 21.2202 43.4127 21.2202 41.1414C21.2202 41.0332 21.2202 40.925 21.2202 40.8168C21.3275 41.2708 21.6063 41.7254 21.7994 42.093C21.8425 41.8119 21.9282 41.509 22.014 41.2061C22.2928 40.3193 22.7436 39.5618 23.2797 38.9778L26.2193 39.5835L26.2409 39.54L23.4943 38.285C23.4086 37.5064 23.4943 36.6625 23.7731 35.7973C23.8589 35.4945 23.9878 35.2133 24.1167 34.9534C23.7521 35.1263 23.2371 35.3427 22.872 35.6674C24.1377 33.7419 26.0689 32.2928 28.343 31.6653C27.9138 31.9247 27.5492 32.3357 27.2488 32.6386C27.5276 32.5951 27.828 32.5739 28.15 32.5739C29.0511 32.5739 29.9091 32.7686 30.6172 33.0932L30.9607 36.0785H31.0039L31.3474 33.0932C32.0555 32.7686 32.8924 32.5739 33.8146 32.5739C34.115 32.5739 34.4154 32.5957 34.7158 32.6386C34.4154 32.3357 34.0508 31.9029 33.6431 31.6653C35.8957 32.3145 37.8269 33.7419 39.1142 35.6674C38.7496 35.3427 38.2562 35.1263 37.8695 34.9534C37.9984 35.2128 38.1057 35.4945 38.213 35.7973C38.4918 36.6625 38.5776 37.5281 38.4918 38.285L35.7668 39.54L35.7884 39.5835L38.7065 38.9778C39.243 39.5618 39.6718 40.3193 39.9722 41.2061C40.0579 41.509 40.1437 41.7901 40.1868 42.093C40.3799 41.7254 40.6371 41.2926 40.766 40.8168C40.766 40.925 40.766 41.0332 40.766 41.1197C40.7007 43.4133 39.9501 45.5116 38.6628 47.1772Z" fill="#0A0C0D"/>
<path d="M26.6902 39.757L28.321 44.8194H33.6205L35.2513 39.757L30.9813 36.62L26.6902 39.757Z" fill="#0A0C0D"/>
<path d="M71.229 30.3131V48.0046H81.3003V43.9959H75.7877V30.3131H71.229Z" fill="#F4FCC8"/>
<path d="M89.7022 37.5286C87.6617 37.5286 86.3626 39.0521 86.3626 40.9228C86.3626 42.9003 87.5817 44.5037 89.543 44.5037C91.4249 44.5037 93.0151 43.087 93.0151 41.0296C93.0151 38.9453 91.5575 37.5286 89.7022 37.5286ZM82.0691 40.9759C82.0691 37.0208 84.9583 33.5467 88.8541 33.5467C90.5502 33.5467 91.6368 34.1345 92.8825 35.2838V33.8141H97.0701V48.0046H92.8032V46.6149C92.8032 46.6149 91.2657 48.3519 88.6156 48.3519C84.7192 48.3519 82.0691 45.5193 82.0691 40.9759Z" fill="#F4FCC8"/>
<path d="M109.66 48.0046H99.5876V30.3131H104.147V43.9959H109.66V48.0046Z" fill="#F4FCC8"/>
<path d="M115.782 48.0046H111.541V33.8141H115.782V48.0046V48.0046ZM111.144 30.2063C111.144 28.7635 112.284 27.5873 113.688 27.5873C115.093 27.5873 116.259 28.7097 116.259 30.1526C116.259 31.5954 115.092 32.7984 113.635 32.7984C112.257 32.7984 111.144 31.676 111.144 30.2063Z" fill="#F4FCC8"/>
<path d="M124.714 37.2082C122.726 37.2082 121.746 38.8385 121.746 40.6024C121.746 42.4194 122.805 43.9159 124.687 43.9159C126.808 43.9159 127.948 42.2058 127.948 40.6024C127.947 38.731 126.887 37.2082 124.714 37.2082ZM117.611 40.6286C117.611 36.7803 120.022 33.5467 123.707 33.5467C125.483 33.5467 126.702 34.1345 127.894 35.4174V33.8141H131.949V46.3207C131.949 50.7036 128.689 53.0015 124.767 53.0015C121.321 53.0015 118.326 51.2376 117.876 48.0577H122.646C123.229 49.0196 123.839 49.207 124.873 49.207C126.357 49.207 127.709 48.5125 127.709 46.9621C127.709 46.588 127.735 46.2676 127.682 45.8935C126.861 46.6417 125.323 47.5237 123.68 47.5237C120.075 47.5499 117.611 44.5037 117.611 40.6286Z" fill="#F4FCC8"/>
<path d="M141.438 37.5286C139.397 37.5286 138.098 39.0521 138.098 40.9228C138.098 42.9003 139.317 44.5037 141.279 44.5037C143.161 44.5037 144.751 43.087 144.751 41.0296C144.751 38.9453 143.293 37.5286 141.438 37.5286ZM133.805 40.9759C133.805 37.0208 136.694 33.5467 140.59 33.5467C142.286 33.5467 143.372 34.1345 144.618 35.2838V33.8141H148.806V48.0046H144.539V46.6149C144.539 46.6149 143.001 48.3519 140.351 48.3519C136.455 48.3519 133.805 45.5193 133.805 40.9759Z" fill="#F4FCC8"/>
<path d="M179.328 31.733C179.268 30.624 178.971 29.5452 178.406 28.5262L173.412 19.7745C173.026 19.1149 172.758 18.3962 172.61 17.6465L172.402 18.0059C171.153 20.1641 171.153 22.8315 172.402 24.989L176.415 31.9721C177.663 34.1303 177.663 36.7977 176.415 38.9552L176.207 39.3146C176.059 38.5952 175.791 37.8758 175.404 37.1866L171.748 30.7724L169.4 26.6965C169.014 26.0369 168.746 25.3181 168.597 24.5685L168.389 24.9279C167.141 27.0861 167.141 29.7535 168.389 31.911L172.403 38.9243C173.651 41.0825 173.651 43.7499 172.403 45.9074L172.195 46.2668C172.046 45.5474 171.778 44.828 171.392 44.1388L166.398 35.3871C165.715 34.2183 165.418 32.8998 165.477 31.5805C160.127 32.9891 156.411 35.9863 156.411 39.463C156.411 44.2886 163.574 48.2148 172.403 48.2148C181.231 48.2148 188.394 44.2886 188.394 39.463C188.364 36.169 184.678 33.1718 179.328 31.733ZM194.398 46.6591C194.457 45.4305 194.636 44.5613 194.963 43.6021C196.657 44.3813 198.797 44.7709 200.462 44.7709C203.256 44.7709 204.802 43.8715 204.802 42.0733C204.802 40.3054 203.672 39.496 200.848 38.2667L199.303 37.6071C196.479 36.3785 194.547 34.7597 194.547 31.553C194.547 28.1064 196.925 25.8884 201.77 25.8884C203.732 25.8884 205.545 26.1585 207.268 26.7576C207.179 27.9566 206.971 28.9158 206.674 29.7844C205.039 29.1852 203.137 28.9152 201.74 28.9152C199.124 28.9152 197.935 29.9341 197.935 31.5523C197.935 33.1409 199.094 34.0396 201.205 34.9391L202.84 35.6282C206.644 37.2766 208.25 38.9848 208.25 41.9222C208.25 45.399 205.634 47.7963 200.521 47.7963C198.113 47.8279 196.092 47.4678 194.398 46.6591ZM224.419 32.2126V47.3483H221.387L221.209 45.5199C220.377 46.8384 219.069 47.7076 216.988 47.7076C213.035 47.7076 210.389 44.8005 210.389 39.7055C210.389 34.3708 213.213 31.3434 218.772 31.3434C220.882 31.3434 222.665 31.5832 224.419 32.2126ZM221.09 43.9017V34.4004C220.406 34.2808 219.663 34.2203 218.711 34.2203C215.293 34.2203 213.688 36.3483 213.688 39.7351C213.688 42.8223 214.906 45.01 217.849 45.01C219.188 44.9805 220.228 44.5607 221.09 43.9017ZM241.302 37.1577V47.318H238.003V37.7273C238.003 35.3293 237.23 34.1908 233.93 34.1908C233.158 34.1908 232.206 34.2808 231.314 34.4306V47.318H228.015V32.183C230.125 31.6739 232.414 31.3441 234.019 31.3441C239.549 31.3434 241.302 33.5016 241.302 37.1577ZM250.458 44.8602C251.409 44.8602 252.33 44.6802 253.044 44.4109C252.954 45.3103 252.836 46.3588 252.657 47.228C251.765 47.5874 250.785 47.7076 249.863 47.7076C246.653 47.7076 244.602 46.209 244.602 42.5227V26.6381C245.612 26.3082 246.891 26.1585 247.901 26.1585V31.8828H253.133C253.074 32.9018 252.984 33.861 252.836 34.7302H247.901V42.1331C247.901 44.1113 248.882 44.8602 250.458 44.8602ZM268.173 32.2126V47.3483H265.142L264.963 45.5199C264.131 46.8384 262.823 47.7076 260.742 47.7076C256.789 47.7076 254.143 44.8005 254.143 39.7055C254.143 34.3708 256.967 31.3434 262.525 31.3434C264.666 31.3434 266.449 31.5832 268.173 32.2126ZM264.874 43.9017V34.4004C264.19 34.2808 263.447 34.2203 262.495 34.2203C259.077 34.2203 257.472 36.3483 257.472 39.7351C257.472 42.8223 258.69 45.01 261.633 45.01C262.942 44.9805 264.012 44.5607 264.874 43.9017ZM285.086 37.1577V47.318H281.787V37.7273C281.787 35.3293 281.014 34.1908 277.714 34.1908C276.942 34.1908 275.99 34.2808 275.099 34.4306V47.318H271.799V32.183C273.91 31.6739 276.199 31.3441 277.804 31.3441C283.303 31.3434 285.086 33.5016 285.086 37.1577ZM301.851 26.1585V47.3483H298.789L298.61 45.4003C297.778 46.8089 296.47 47.7083 294.33 47.7083C290.377 47.7083 287.732 44.8011 287.732 39.7062C287.732 34.3715 290.556 31.3441 296.114 31.3441C296.976 31.3441 297.808 31.4341 298.58 31.5839V26.5789C299.592 26.2485 300.751 26.1585 301.851 26.1585ZM298.552 43.8117V34.4904C297.69 34.3103 296.768 34.1908 295.906 34.1908C292.637 34.1908 291.061 36.259 291.061 39.7055C291.061 42.7927 292.28 44.9805 295.223 44.9805C296.59 44.9805 297.66 44.5311 298.552 43.8117ZM318.437 40.8743H307.885C308.301 43.5719 309.876 44.8602 312.819 44.8602C314.633 44.8602 316.446 44.4707 318.11 43.721C317.991 44.5902 317.813 45.759 317.605 46.7484C316.088 47.4376 314.513 47.7076 312.729 47.7076C307.201 47.7076 304.525 44.6204 304.525 39.4355C304.525 34.9397 306.606 31.3434 311.837 31.3434C316.563 31.3434 318.584 34.4601 318.584 38.2667C318.616 39.2259 318.556 39.9756 318.437 40.8743ZM307.855 38.0874H315.286C315.286 35.6 313.979 34.1612 311.69 34.1612C309.341 34.131 308.123 35.5094 307.855 38.0874ZM330 31.4636C330 32.4524 329.882 33.6816 329.703 34.311C328.93 34.221 328.128 34.1908 327.206 34.1908C326.403 34.1908 325.571 34.2506 324.769 34.3708V47.318H321.469V32.183C322.866 31.7034 325.244 31.3441 327.117 31.3441C328.127 31.3434 329.287 31.3736 330 31.4636Z" fill="#F4FCC8"/>
</g>
<defs>
<clipPath id="clip0">
<rect width="330" height="79" fill="white"/>
</clipPath>
</defs>
</svg>
