<svg width="270" height="87" viewBox="0 0 270 87" fill="none" xmlns="http://www.w3.org/2000/svg">
<g clip-path="url(#clip0)">
<path fill-rule="evenodd" clip-rule="evenodd" d="M116.193 43.954V49.7756C116.193 49.7756 114.479 51.5439 110.467 51.5544C106.455 51.5649 102.086 49.0054 102.124 44.6009C102.161 40.1964 105.356 37.0005 110.467 37.0005C113.766 36.9743 115.702 37.9708 115.702 37.9708L114.721 41.205C114.721 41.205 112.656 40.2523 110.467 40.2347C108.278 40.2171 106.022 41.5171 106.05 44.4392C106.078 47.3613 108.718 48.4843 110.467 48.4819C112.216 48.4795 112.594 48.1585 112.594 48.1585V44.4392L116.193 43.954Z" fill="#FFFFFE"/>
<path fill-rule="evenodd" clip-rule="evenodd" d="M95.2523 37.0005V51.5544H99.0151V37.0005H95.2523Z" fill="#FFFFFE"/>
<path fill-rule="evenodd" clip-rule="evenodd" d="M82.1643 37.001V51.5549H92.7983V48.4824H85.9271V37.001H82.1643Z" fill="#FFFFFE"/>
<path fill-rule="evenodd" clip-rule="evenodd" d="M133.044 37.0005H129.281V45.8853C129.281 45.8853 129.634 48.4517 126.173 48.4699C126.173 48.4708 126.173 48.475 126.173 48.4819C122.712 48.4635 123.064 45.8945 123.064 45.8945V37.0005H119.302C119.302 37.0005 119.304 38.3073 119.302 45.2477C119.299 52.1881 126.173 51.5544 126.173 51.5544C126.173 51.5544 126.173 51.5483 126.173 51.5392C126.173 51.5392 133.047 52.1721 133.044 45.2391C133.041 38.3058 133.044 37.0005 133.044 37.0005Z" fill="#FFFFFE"/>
<path fill-rule="evenodd" clip-rule="evenodd" d="M136.807 37.0005V51.5544H147.768V48.3202H140.57V45.5711H146.132V42.6603H140.57V40.2347H147.441V37.0005H136.807Z" fill="#FFFFFE"/>
<path fill-rule="evenodd" clip-rule="evenodd" d="M159.056 51.5544V41.5284L155.948 43.1455L155.13 39.9113L160.365 37.0005H162.656V51.5544H159.056Z" fill="#FFFFFE"/>
<path d="M246.493 46.3856C246.493 44.5085 244.974 43.0337 243.057 43.0337C241.167 43.0337 239.62 44.5085 239.62 46.3856C239.62 48.2628 241.167 49.7376 243.057 49.7376C244.974 49.7376 246.493 48.2628 246.493 46.3856ZM249.296 40.8974V51.8827H246.439V50.8906C245.444 51.704 244.187 52.1598 242.821 52.1598C239.439 52.1598 236.799 49.5945 236.799 46.3856C236.799 43.1857 239.448 40.6115 242.821 40.6115C244.187 40.6115 245.444 41.0673 246.439 41.8807V40.8975C246.439 40.8974 249.296 40.8974 249.296 40.8974ZM258.791 49.3889H256.639C255.988 49.3889 255.563 49.1118 255.563 48.5218V43.3822H258.782V40.8974H255.563V37.7689H252.678V40.8974H250.508V43.3913H252.678V49.228C252.678 50.7028 253.754 51.8738 255.69 51.8738H258.782V49.3889H258.791V49.3889ZM265.302 52.1598C268.603 52.1598 270.466 50.6313 270.466 48.5218C270.466 47.0202 269.363 45.9029 267.056 45.4202L264.615 44.9375C263.204 44.6872 262.752 44.428 262.752 43.9186C262.752 43.2572 263.43 42.8549 264.687 42.8549C266.053 42.8549 267.047 43.2124 267.337 44.428H270.194C270.04 42.1398 268.331 40.6113 264.877 40.6113C261.893 40.6113 259.795 41.8091 259.795 44.1241C259.795 45.7241 260.953 46.7699 263.439 47.2794L266.161 47.8873C267.238 48.0928 267.527 48.37 267.527 48.799C267.527 49.4872 266.713 49.9163 265.402 49.9163C263.756 49.9163 262.806 49.5587 262.445 48.3432H259.56C259.985 50.6313 261.739 52.1598 265.302 52.1598ZM225.269 37.0003H236.039V39.5389H228.181V43.1768H235.831V45.6439H228.181V49.3265H236.039V51.865H225.269V37.0003Z" fill="#07C26B"/>
<path d="M220.151 42.9443V40.9511H219.382C218.162 40.9511 217.257 41.5052 216.715 42.3723V41.0316H214.526V51.8561H216.733V45.7065C216.733 44.026 217.782 42.9445 219.229 42.9445H220.151V42.9443ZM204.272 45.4471C204.669 43.7934 206.044 42.6851 207.681 42.6851C209.318 42.6851 210.701 43.7845 211.072 45.4471H204.272ZM207.726 40.8259C204.47 40.8259 201.993 43.3913 201.993 46.4482C201.993 49.675 204.57 52.0974 207.925 52.0974C209.96 52.0974 211.623 51.2303 212.736 49.7824L211.135 48.6383C210.303 49.7198 209.209 50.2293 207.916 50.2293C206.035 50.2293 204.525 48.9154 204.217 47.1546H213.296V46.4575C213.305 43.2215 210.945 40.8259 207.726 40.8259ZM195.102 50.2292C192.959 50.2292 191.25 48.5487 191.25 46.4751C191.25 44.3745 192.977 42.721 195.102 42.721C197.2 42.721 198.927 44.3746 198.927 46.4751C198.936 48.5488 197.209 50.2292 195.102 50.2292ZM189.088 51.8649H191.277V50.5062C192.28 51.5073 193.709 52.115 195.256 52.115C198.538 52.115 201.116 49.5854 201.116 46.4659C201.116 43.3285 198.538 40.7989 195.256 40.7989C193.7 40.7989 192.299 41.4157 191.295 42.4077V37H189.088V51.8649ZM181.321 50.122C183.446 50.122 185.082 48.5309 185.082 46.1712V37.0003H187.379V51.856H185.101V50.4795C184.07 51.5164 182.65 52.1152 181.049 52.1152C177.767 52.1152 175.253 49.8002 175.253 46.2962V37.0002H177.559V46.1711C177.559 48.5755 179.177 50.122 181.321 50.122Z" fill="white"/>
<path d="M38.204 54.9791C43.9771 54.9791 48.6571 50.3532 48.6571 44.6468C48.6571 38.9404 43.9771 34.3144 38.204 34.3144C32.4309 34.3144 27.7509 38.9404 27.7509 44.6468C27.7509 50.3532 32.4309 54.9791 38.204 54.9791Z" fill="white"/>
<path fill-rule="evenodd" clip-rule="evenodd" d="M29.4355 66.2459L21.4288 79.0405C21.4288 79.0405 38.3227 81.3658 56.3914 78.7767C66.7444 66.3494 74.8995 50.7333 76.4081 46.8561C70.0064 32.2187 59.4606 18.8927 59.4606 18.8927L51.3205 31.6873C51.3205 31.6873 57.1859 38.9597 60.6616 46.8561C57.92 52.5061 53.2554 60.3105 48.6516 66.114C41.4759 66.8316 29.4355 66.2459 29.4355 66.2459Z" fill="#D0FB0C"/>
<path fill-rule="evenodd" clip-rule="evenodd" d="M46.9726 22.7541L54.9793 9.95953C54.9793 9.95953 38.0854 7.63421 20.0167 10.2233C9.66368 22.6506 1.50859 38.2667 0 42.1439C6.40175 56.7813 16.9475 70.1073 16.9475 70.1073L25.0876 57.3127C25.0876 57.3127 19.2222 50.0403 15.7465 42.1439C18.4881 36.494 23.1527 28.6895 27.7565 22.886C34.9323 22.1683 46.9726 22.7541 46.9726 22.7541Z" fill="#D0FB0C"/>
</g>
<defs>
<clipPath id="clip0">
<rect width="270" height="87" fill="white"/>
</clipPath>
</defs>
</svg>
