<svg width="43" height="40" viewBox="0 0 43 40" fill="none" xmlns="http://www.w3.org/2000/svg">
<path d="M21.0965 25.3678C24.2844 25.3678 26.8688 22.8155 26.8688 19.6672C26.8688 16.5188 24.2844 13.9666 21.0965 13.9666C17.9086 13.9666 15.3242 16.5188 15.3242 19.6672C15.3242 22.8155 17.9086 25.3678 21.0965 25.3678Z" fill="white"/>
<path fill-rule="evenodd" clip-rule="evenodd" d="M16.2543 31.5839L11.833 38.643C11.833 38.643 21.1619 39.9259 31.1395 38.4975C36.8565 31.641 41.3598 23.0252 42.1929 20.8861C38.6578 12.8103 32.8344 5.45802 32.8344 5.45802L28.3393 12.5171C28.3393 12.5171 31.5783 16.5295 33.4976 20.8861C31.9836 24.0033 29.4078 28.3092 26.8656 31.5111C22.9031 31.9071 16.2543 31.5839 16.2543 31.5839Z" fill="#D0FB0C"/>
<path fill-rule="evenodd" clip-rule="evenodd" d="M25.9385 7.58849L30.3599 0.529396C30.3599 0.529396 21.031 -0.753538 11.0533 0.674945C5.33633 7.53136 0.833054 16.1472 0 18.2863C3.53508 26.3621 9.3585 33.7144 9.3585 33.7144L13.8535 26.6553C13.8535 26.6553 10.6146 22.6429 8.6953 18.2863C10.2092 15.1691 12.785 10.8632 15.3273 7.66126C19.2898 7.2653 25.9385 7.58849 25.9385 7.58849Z" fill="#D0FB0C"/>
</svg>
