<svg width="582" height="878" viewBox="0 0 582 878" fill="none" xmlns="http://www.w3.org/2000/svg">
<g clip-path="url(#clip0)">
<path fill-rule="evenodd" clip-rule="evenodd" d="M253 676V712C253 712 242.522 722.935 218 723C193.478 723.065 166.772 707.237 167 680C167.228 652.763 186.756 633 218 633C238.167 632.838 250 639 250 639L244 659C244 659 231.382 653.109 218 653C204.618 652.891 190.827 660.93 191 679C191.173 697.07 207.309 704.015 218 704C228.691 703.985 231 702 231 702V679L253 676Z" fill="#FFFFFE"/>
<path fill-rule="evenodd" clip-rule="evenodd" d="M125 633V723H148V633H125Z" fill="#FFFFFE"/>
<path fill-rule="evenodd" clip-rule="evenodd" d="M45 633V723H110V704H68V633H45Z" fill="#FFFFFE"/>
<path fill-rule="evenodd" clip-rule="evenodd" d="M356 633H333V687.943C333 687.943 335.155 703.813 314 703.926C314 703.931 313.999 703.957 313.999 704C292.845 703.886 295 688 295 688V633H272C272 633 272.016 641.081 272 684C271.984 726.919 314 723 314 723C314 723 314 722.962 314 722.906C314.003 722.906 356.016 726.82 356 683.947C355.984 641.072 356 633 356 633Z" fill="#FFFFFE"/>
<path fill-rule="evenodd" clip-rule="evenodd" d="M379 633V723H446V703H402V686H436V668H402V653H444V633H379Z" fill="#FFFFFE"/>
<path fill-rule="evenodd" clip-rule="evenodd" d="M515 723V661L496 671L491 651L523 633H537V723H515Z" fill="#FFFFFE"/>
<path d="M435.46 842.173C435.46 830.565 426.174 821.445 414.456 821.445C402.904 821.445 393.452 830.565 393.452 842.173C393.452 853.781 402.904 862.901 414.456 862.901C426.174 862.901 435.46 853.781 435.46 842.173ZM452.595 808.234V876.166H435.128V870.031C429.048 875.061 421.365 877.88 413.018 877.88C392.345 877.88 376.205 862.016 376.205 842.173C376.205 822.385 392.4 806.466 413.018 806.466C421.364 806.466 429.048 809.285 435.128 814.315V808.235C435.128 808.234 452.595 808.234 452.595 808.234ZM510.634 860.745H497.479C493.499 860.745 490.901 859.031 490.901 855.383V823.6H510.579V808.234H490.901V788.888H473.268V808.234H460.002V823.656H473.268V859.75C473.268 868.87 479.846 876.111 491.674 876.111H510.578V860.745H510.634ZM550.431 877.88C570.606 877.88 581.993 868.428 581.993 855.383C581.993 846.097 575.25 839.188 561.154 836.203L546.23 833.218C537.607 831.67 534.843 830.067 534.843 826.917C534.843 822.827 538.989 820.339 546.672 820.339C555.018 820.339 561.099 822.55 562.867 830.067H580.334C579.394 815.917 568.947 806.465 547.833 806.465C529.592 806.465 516.769 813.872 516.769 828.188C516.769 838.082 523.844 844.549 539.045 847.7L555.683 851.459C562.261 852.73 564.029 854.444 564.029 857.097C564.029 861.353 559.054 864.006 551.039 864.006C540.979 864.006 535.175 861.795 532.964 854.278H515.331C517.93 868.428 528.653 877.88 550.431 877.88ZM305.731 784.135H371.563V799.833H323.529V822.33H370.291V837.586H323.529V860.359H371.563V876.057H305.731V784.135Z" fill="#07C26B"/>
<path d="M274.445 820.892V808.566H269.747C262.285 808.566 256.757 811.993 253.441 817.355V809.064H240.065V876.002H253.552V837.973C253.552 827.581 259.964 820.893 268.808 820.893H274.445V820.892ZM177.383 836.369C179.815 826.143 188.217 819.289 198.222 819.289C208.227 819.289 216.684 826.088 218.95 836.369H177.383ZM198.498 807.792C178.599 807.792 163.454 823.656 163.454 842.56C163.454 862.514 179.207 877.494 199.714 877.494C212.151 877.494 222.321 872.132 229.12 863.178L219.336 856.103C214.251 862.791 207.563 865.942 199.658 865.942C188.161 865.942 178.93 857.817 177.051 846.928H232.547V842.617C232.602 822.606 218.176 807.792 198.498 807.792ZM121.335 865.941C108.235 865.941 97.7879 855.549 97.7879 842.726C97.7879 829.736 108.345 819.511 121.335 819.511C134.159 819.511 144.716 829.737 144.716 842.726C144.771 855.55 134.214 865.941 121.335 865.941ZM84.577 876.056H97.953V867.654C104.088 873.845 112.822 877.603 122.274 877.603C142.339 877.603 158.092 861.96 158.092 842.669C158.092 823.268 142.339 807.625 122.274 807.625C112.767 807.625 104.199 811.439 98.0639 817.574V784.133H84.577V876.056ZM37.0959 865.278C50.0859 865.278 60.09 855.439 60.09 840.847V784.135H74.13V876.001H60.201V867.489C53.9 873.901 45.222 877.604 35.438 877.604C15.373 877.604 0.00695801 863.288 0.00695801 841.62V784.134H14.102V840.846C14.102 855.715 23.9959 865.278 37.0959 865.278Z" fill="white"/>
<path d="M291 348.333C334.262 348.333 369.333 313.262 369.333 270C369.333 226.738 334.262 191.667 291 191.667C247.738 191.667 212.667 226.738 212.667 270C212.667 313.262 247.738 348.333 291 348.333Z" fill="white"/>
<path fill-rule="evenodd" clip-rule="evenodd" d="M225.292 433.75L165.292 530.75C165.292 530.75 291.89 548.379 427.292 528.75C504.875 434.535 565.987 316.144 577.292 286.75C529.319 175.779 450.292 74.75 450.292 74.75L389.292 171.75C389.292 171.75 433.246 226.885 459.292 286.75C438.747 329.584 403.792 388.752 369.292 432.75C315.519 438.191 225.292 433.75 225.292 433.75Z" fill="#D0FB0C"/>
<path fill-rule="evenodd" clip-rule="evenodd" d="M356.708 104.025L416.708 7.025C416.708 7.025 290.11 -10.604 154.708 9.025C77.125 103.24 16.013 221.631 4.70801 251.025C52.681 361.996 131.708 463.025 131.708 463.025L192.708 366.025C192.708 366.025 148.754 310.89 122.708 251.025C143.253 208.191 178.208 149.023 212.708 105.025C266.481 99.584 356.708 104.025 356.708 104.025Z" fill="#D0FB0C"/>
</g>
<defs>
<clipPath id="clip0">
<rect width="582" height="878" fill="white"/>
</clipPath>
</defs>
</svg>
