<svg width="123" height="159" viewBox="0 0 123 159" fill="none" xmlns="http://www.w3.org/2000/svg">
<g clip-path="url(#clip0)">
<path d="M0 133.804C0.865252 150.252 58.9987 158.655 61.3486 158.99L61.3865 159H61.4338L61.4668 158.99C63.8167 158.655 122.083 150.252 122.948 133.804L123 22.8327C122.924 14.307 116.641 10.9779 115.463 10.3601C114.655 9.93571 95.5905 0 61.4669 0C27.3244 0 8.34067 9.89325 7.50376 10.3412C2.76136 12.8876 0.0378866 17.4476 0.0378866 22.8327" fill="white"/>
<path d="M58.8804 74.718H64.8161V73.9971H58.8804V74.718Z" fill="#AC965A"/>
<path d="M38.5257 75.2367V76.0714H33.8069C33.8542 75.7555 34.015 75.4584 34.2703 75.1707C34.5303 74.8878 35.0315 74.5153 35.7786 74.0531C36.3743 73.6853 36.7336 73.4354 36.8708 73.3034L37.1782 72.7328L36.9228 72.2706L36.2655 72.1151C35.6698 72.1151 35.3484 72.3603 35.3011 72.846L33.9629 72.7565C34.0432 72.2803 34.2892 71.9266 34.6911 71.705C35.093 71.4833 35.632 71.3702 36.3034 71.3702C37.0363 71.3702 37.5894 71.4974 37.9677 71.7616C38.3412 72.0256 38.5257 72.3227 38.5257 72.6622L38.3838 73.2187L37.9441 73.761C37.7455 73.9449 37.4098 74.1806 36.9512 74.4588C36.5162 74.7276 36.242 74.9021 36.1285 74.987L35.8496 75.2369" fill="#AC965A"/>
<path d="M41.7121 72.1151L41.0785 72.4028C40.9178 72.5961 40.8373 73.0488 40.8373 73.7609C40.8373 74.4776 40.9177 74.9303 41.0785 75.1236L41.7121 75.4066L42.3504 75.1189C42.5064 74.9255 42.5868 74.4776 42.5868 73.7609C42.5868 73.0488 42.5065 72.5961 42.3504 72.4028L41.7121 72.1151ZM41.7077 71.3701C42.3886 71.3701 42.9418 71.5444 43.3627 71.9029C43.7835 72.2566 43.9914 72.879 43.9914 73.7609C43.9914 74.6474 43.7835 75.2651 43.3627 75.6188C42.9418 75.9771 42.3933 76.1516 41.7172 76.1516C41.0316 76.1516 40.4832 75.9773 40.0624 75.6235C39.6415 75.2746 39.4287 74.6521 39.4287 73.7514C39.4287 72.8743 39.6415 72.2566 40.0624 71.9029C40.4832 71.5445 41.0316 71.3701 41.7077 71.3701Z" fill="#AC965A"/>
<path d="M48.3319 76.0762H46.989V72.6904C46.4878 73.0016 45.9062 73.2233 45.249 73.3694V72.5537C45.6226 72.4736 46.0103 72.3273 46.4122 72.1104C46.8094 71.8982 47.093 71.653 47.2491 71.3747H48.3319" fill="#AC965A"/>
<path d="M50.3647 74.869L51.7076 74.7748L52.0528 75.2558L52.6958 75.4301L53.4097 75.2085C53.6036 75.0577 53.7076 74.8266 53.7076 74.5154L53.4097 73.8646C53.2158 73.7232 52.9606 73.6524 52.6627 73.6524C52.275 73.6524 51.925 73.7703 51.613 73.9966L50.5161 73.8927L51.2111 71.4548H54.7715V72.2942H52.2372L52.0197 73.0911C52.327 72.9872 52.6296 72.9355 52.9417 72.9355C53.4949 72.9355 53.9677 73.0582 54.3507 73.2939C54.8424 73.6004 55.0788 74.0012 55.0788 74.5011C55.0788 74.9113 54.8755 75.2933 54.4594 75.6375C54.0433 75.9818 53.4523 76.1562 52.6816 76.1562C52.0622 76.1562 51.5421 76.0429 51.1213 75.8214C50.7052 75.5951 50.4498 75.2792 50.3647 74.8689" fill="#AC965A"/>
<path d="M72.9185 76.0762H68.1855C68.2944 75.3736 68.8191 74.8784 70.1619 74.0249C71.1076 73.4402 71.5615 73.1525 71.571 72.6951C71.5608 72.1198 70.9042 72.0632 70.6537 72.0632C70.0248 72.0632 69.7411 72.3273 69.6939 72.8083L68.3463 72.7141C68.384 72.4925 68.4835 71.9926 69.0414 71.6672C69.5237 71.3985 70.2045 71.3089 70.6868 71.3089C72.318 71.3089 72.9185 72.0397 72.9185 72.6386C72.9185 73.4638 72.0249 74.0203 71.3346 74.4447C70.6442 74.8785 70.422 75.0152 70.2328 75.2275H72.9185" fill="#AC965A"/>
<path d="M75.2495 73.7372C75.2495 74.9963 75.4764 75.4018 76.1148 75.4018C76.7625 75.4018 76.9894 74.9916 76.9894 73.7372C76.9894 72.4782 76.7625 72.0679 76.1148 72.0679C75.4764 72.0679 75.2495 72.4687 75.2495 73.7372ZM78.1006 72.2707C78.3843 72.8035 78.4079 73.4071 78.4079 73.7372C78.4079 74.0437 78.3978 74.6473 78.1006 75.1755C77.8169 75.7036 77.2448 76.1563 76.1242 76.1563C74.9942 76.1563 74.4173 75.713 74.1288 75.1896C73.831 74.6568 73.8311 74.0579 73.8311 73.7231C73.8311 73.4071 73.8454 72.8036 74.1288 72.2802C74.422 71.7567 74.9942 71.3135 76.1148 71.3135C77.2353 71.3135 77.8074 71.752 78.1006 72.2707Z" fill="#AC965A"/>
<path d="M81.4008 76.0762V72.648C81.103 72.8367 80.5262 73.1478 79.6609 73.3365V72.5159C79.7981 72.4827 81.2353 72.1151 81.6562 71.3088H82.7579V76.0762" fill="#AC965A"/>
<path d="M87.2781 75.3971C88.1434 75.3971 88.1434 74.6804 88.1434 74.5483C88.1434 74.4351 88.1434 73.6618 87.2119 73.6618C87.0322 73.6618 86.2852 73.709 86.2852 74.4682C86.2852 74.9397 86.6304 75.3971 87.2781 75.3971ZM88.0346 72.5866C88.015 72.4734 87.926 72.0632 87.2498 72.0632C86.3042 72.0632 86.2142 72.8837 86.167 73.3788L86.1867 73.389C86.6217 73.0306 87.1607 72.9976 87.416 72.9976C88.5271 72.9976 89.4682 73.6106 89.4682 74.549C89.4682 75.4968 88.5602 76.1523 87.2127 76.1523C86.5933 76.1523 85.5295 76.0014 85.033 75.0583C84.8203 74.6433 84.7729 74.2047 84.7729 73.7615C84.7729 73.3277 84.7729 71.3094 87.3356 71.3094C87.9692 71.3094 88.5792 71.4697 88.9622 71.8234L89.3357 72.4883" fill="#AC965A"/>
<path d="M3.49854 111.867V131.277L3.54128 131.63C4.36398 147.163 59.1641 155.095 61.4005 155.416L61.4335 155.426L61.4532 155.421L61.4813 155.426L61.5144 155.416C63.7461 155.095 118.546 147.163 119.374 131.63L119.421 131.277V111.867H3.49915" fill="url(#paint0_radial)"/>
<path d="M119.421 111.877H3.49414V131.277L3.54625 131.63C4.36421 147.163 59.169 155.1 61.4007 155.416L61.4386 155.426L61.4583 155.421L61.4819 155.426L61.5148 155.416C63.7465 155.1 118.551 147.163 119.374 131.63L119.421 131.277V111.877H119.421ZM117.198 114.093V131.159L117.16 131.286L117.15 131.512C116.99 134.559 113.297 140.637 90.3697 147.093C77.1449 150.813 63.5418 152.879 61.4566 153.18C59.3715 152.879 45.7779 150.818 32.5483 147.093C9.62119 140.637 5.92842 134.559 5.76292 131.512L5.75277 131.296L5.71965 131.159V114.093H117.197" fill="#084C7F"/>
<path d="M98.1814 119.082H96.8149C95.0654 119.082 94.9566 119.275 94.8195 119.573L92.115 126.061C91.2119 128.216 90.2805 130.532 89.9259 131.729C89.5997 130.532 88.9992 128.924 87.7414 125.953L85.0369 119.573C84.8715 119.191 84.1905 119.082 82.7106 119.082H81.1787C79.6798 119.082 79.3772 119.219 79.3772 119.516V139.09C79.3772 139.444 79.6798 139.524 81.2354 139.524H82.0864C83.6137 139.524 84.0534 139.444 84.0534 139.09V127.476H84.1621C84.1621 127.476 84.2944 128.023 84.5167 128.513L87.6326 135.789C87.7697 136.119 87.9352 136.256 89.3821 136.256H90.3087C91.7839 136.256 91.8974 136.143 92.0346 135.789L94.8762 128.787C95.1505 128.131 95.3396 127.476 95.3396 127.476H95.4484V139.09C95.4484 139.444 95.751 139.524 97.3633 139.524H98.1813C99.6849 139.524 100.12 139.444 100.12 139.09V119.516C100.12 119.219 99.6849 119.082 98.1813 119.082H98.1814ZM75.5 119.516C75.5 119.224 75.0603 119.082 73.5567 119.082H72.682C71.098 119.082 70.8238 119.224 70.8238 119.516V139.09C70.8238 139.444 71.098 139.524 72.682 139.524H73.5567C75.0603 139.524 75.5 139.444 75.5 139.09V119.516ZM67.1595 119.082C67.5708 119.082 67.6559 119.139 67.6559 120.582V121.916C67.6559 123.307 67.5423 123.472 67.1595 123.472H62.5164V139.09C62.5164 139.444 62.0766 139.524 60.521 139.524H59.6984C58.1144 139.524 57.8448 139.444 57.8448 139.09V123.472H53.1971C52.8141 123.472 52.7053 123.364 52.7053 121.916V120.582C52.7053 119.082 52.7856 119.082 53.1971 119.082" fill="white"/>
<path d="M32.5065 135.148H23.8728C23.5465 135.148 23.2534 135.28 23.0359 135.497C22.8279 135.705 22.6907 136.002 22.6907 136.322V138.345C22.6907 138.671 22.8279 138.963 23.0359 139.17C23.2439 139.387 23.5465 139.524 23.8728 139.524H32.5065V135.148ZM46.885 135.497C46.6675 135.28 46.3696 135.148 46.0481 135.148H37.4097V139.524H46.0481C46.3696 139.524 46.6675 139.387 46.885 139.17C47.0931 138.963 47.2255 138.671 47.2255 138.345V136.322C47.2255 136.002 47.0931 135.709 46.885 135.497ZM46.885 127.466C46.6675 127.245 46.3696 127.113 46.0481 127.113H37.4097V131.484H46.0481C46.3696 131.484 46.6675 131.357 46.885 131.14C47.0931 130.928 47.2255 130.635 47.2255 130.315V128.292C47.2255 127.966 47.0931 127.674 46.885 127.466ZM32.5065 127.113H23.8728C23.5465 127.113 23.2534 127.245 23.0359 127.462C22.8279 127.674 22.6907 127.966 22.6907 128.292V130.315C22.6907 130.635 22.8279 130.928 23.0359 131.14C23.2439 131.357 23.5465 131.484 23.8728 131.484H32.5065V127.113ZM46.0481 123.453H23.8728C23.5465 123.453 23.2439 123.321 23.0359 123.105C22.8279 122.897 22.6907 122.605 22.6907 122.279V120.256C22.6907 119.936 22.8279 119.643 23.0359 119.431C23.2534 119.214 23.5465 119.082 23.8728 119.082H46.0481C46.3696 119.082 46.6675 119.219 46.885 119.431C47.0931 119.643 47.2255 119.936 47.2255 120.256V122.279C47.2255 122.605 47.0931 122.897 46.885 123.105C46.6675 123.321 46.3696 123.453 46.0481 123.453Z" fill="#E31E26"/>
<path d="M18.8939 85.0075C18.8939 91.6658 30.1565 90.3879 30.1565 95.6741C30.1565 97.6075 28.2085 99.0834 25.8964 99.0834C23.3479 99.0834 21.3431 98.0413 19.9672 96.6077L19.3903 96.6406L18.823 98.7108L19.0263 99.2814C20.6717 99.951 22.511 100.649 25.6316 100.649C29.3859 100.649 32.6388 99.0833 32.6388 94.9714C32.6388 87.45 21.3431 89.1853 21.3431 83.8049C21.3431 82.2299 22.7096 81.2302 24.5962 81.2302C27.3716 81.2302 29.1825 82.1356 30.5584 82.9372L31.0927 82.7723L31.4993 80.7304L31.2582 80.2966C29.7215 80.1927 27.6789 79.693 24.6576 79.693C21.31 79.693 18.8939 81.6358 18.8939 85.0074V85.0075ZM93.3018 80.3249L85.7887 99.753C85.6895 100.017 85.7605 100.253 86.0583 100.253H88.4034C88.706 100.253 88.8385 100.149 88.9425 99.8803L90.5832 94.7356L90.985 94.4668H97.2263L97.6235 94.7356L98.7015 97.5744C98.9994 98.4138 99.4958 99.852 99.4958 99.852C99.6 100.116 99.8079 100.253 100.106 100.253H103.695C103.992 100.253 104.092 100.116 103.959 99.852C103.959 99.852 103.189 98.4468 102.853 97.6074L95.8456 80.3249C95.7653 80.1079 95.1648 80.0042 94.5596 80.0042C93.9639 80.0042 93.368 80.1078 93.3018 80.3249ZM91.2546 92.7315L93.8362 85.3092H94.1719L96.9852 92.7315L96.7866 93.0663H91.4862L91.2546 92.7315ZM70.3133 82.645L69.9255 82.9986L69.9586 91.4489L69.9255 99.8992L70.3133 100.253H80.7012L81.1362 99.9605V98.4609L80.7012 98.1968C80.7012 98.1968 77.2307 98.758 75.7224 98.758H73.0745C72.6963 98.758 72.3701 98.4279 72.3701 98.046L72.3418 92.0666L72.5499 91.8638L78.1386 92.0053L78.4318 91.7978V90.4255L78.1386 90.2134L72.5499 90.3642L72.3418 90.1615L72.3701 84.814C72.3701 84.432 72.6963 84.1397 73.0745 84.1397H75.7224C77.2307 84.1397 80.3749 84.5877 80.3749 84.5877L80.8146 84.3189V82.9372L80.3749 82.6449H70.3133V82.645ZM64.0768 82.6449L63.6985 82.9985L63.7221 91.4488L63.6985 99.8991L64.0768 100.253H65.7836L66.1666 99.8991L66.1385 91.4488L66.1666 82.9985L65.7836 82.6449H64.0768ZM48.8614 82.6449L48.5966 82.9985L48.6295 91.4488L48.5966 99.8991L48.9748 100.253H50.6865L51.0694 99.8991L51.0364 92.4768L51.5991 92.0053H53.566C54.1239 92.0053 54.5968 92.4203 55.0649 93.1795L59.1831 99.8991L59.6938 100.253H61.9302L62.1951 99.8991L61.3676 98.7815L57.4857 93.2643C56.9231 92.4485 56.6252 92.0666 56.3888 91.8874L56.4503 91.6563C58.89 91.0952 60.6301 89.2467 60.6301 86.8134C60.6301 84.4085 58.5449 82.6449 55.9538 82.6449H48.8614H48.8614ZM51.0364 90.3313L51.0695 84.4934C51.0695 84.1114 51.4478 83.819 51.8307 83.819H54.923C56.7481 83.819 57.9821 85.1677 57.9821 87.0162C57.9821 89.8361 56.3367 90.8641 53.7125 90.8641H51.599L51.0364 90.3313H51.0364ZM35.6176 82.6449L35.2394 82.9985L35.263 91.4488L35.2394 99.8991L35.6176 100.253H46.0102L46.4453 99.9604V98.4608L46.0102 98.1968C46.0102 98.1968 42.5398 98.7579 41.0362 98.7579H38.3836C38.0054 98.7579 37.6791 98.4279 37.6791 98.0459L37.6461 92.0666L37.8542 91.8638L43.4476 92.0052L43.7408 91.7977V90.4255L43.4476 90.2133L37.8542 90.3642L37.6461 90.1614L37.6791 84.814C37.6791 84.432 38.0054 84.1396 38.3836 84.1396H41.0362C42.5398 84.1396 45.684 84.5876 45.684 84.5876L46.1237 84.3188V82.9372L45.684 82.6448H35.6176" fill="url(#paint1_linear)"/>
<path d="M80.7012 100.253H70.3086L69.9255 99.8992L69.9586 91.4489L69.9255 82.9939L70.3086 82.645H80.3749L80.8194 82.9374V84.319L80.3749 84.5831C80.3749 84.5831 77.2307 84.1398 75.7224 84.1398H73.0793C72.6963 84.1398 72.3701 84.4322 72.3701 84.8189L72.3418 90.1616L72.5499 90.3644L78.1386 90.2135L78.4318 90.421V91.7979L78.1386 92.0054L72.5499 91.864L72.3418 92.0668L72.3701 98.0461C72.3701 98.4328 72.6963 98.7581 73.0793 98.7581H75.7224C77.2307 98.7581 80.7012 98.197 80.7012 98.197L81.1409 98.4658V99.9606L80.7012 100.253V100.253Z" stroke="#19427A" stroke-width="0.490911"/>
<path d="M94.172 85.3092H93.8362L91.2546 92.7315L91.4863 93.0663H96.7914L96.9853 92.7315L94.172 85.3092V85.3092Z" stroke="#19427A" stroke-width="0.490911"/>
<path d="M103.695 100.253H100.106C99.808 100.253 99.5999 100.116 99.5006 99.852C99.5006 99.852 98.9994 98.4138 98.7016 97.5744L97.6235 94.7356L97.2264 94.4668H90.9898L90.5832 94.7356L88.9425 99.8803C88.8433 100.149 88.7108 100.253 88.4035 100.253H86.0631C85.7605 100.253 85.6895 100.017 85.7935 99.7483L93.3019 80.3249C93.4391 79.8958 95.6802 79.8958 95.8457 80.3249L102.853 97.6074C103.189 98.442 103.964 99.852 103.964 99.852C104.097 100.116 103.997 100.253 103.695 100.253V100.253Z" stroke="#19427A" stroke-width="0.490911"/>
<path d="M65.7883 100.253H64.0814L63.6985 99.8991L63.7268 91.4489L63.6985 82.9939L64.0814 82.6449H65.7883L66.1714 82.9939L66.143 91.4489L66.1714 99.8991L65.7883 100.253Z" stroke="#19427A" stroke-width="0.490911"/>
<path d="M54.923 83.8191H51.8307C51.4525 83.8191 51.0695 84.1162 51.0695 84.4935L51.0364 90.336L51.599 90.8642H53.7173C56.3367 90.8642 57.9821 89.8362 57.9821 87.0163C57.9821 85.1725 56.7481 83.8191 54.923 83.8191Z" stroke="#19427A" stroke-width="0.490911"/>
<path d="M61.9302 100.253H59.6937L59.1878 99.8992L55.0695 93.1795C54.6014 92.4156 54.1286 92.0053 53.5659 92.0053H51.599L51.0364 92.4769L51.0694 99.8992L50.6865 100.253H48.9748L48.6013 99.8992L48.6297 91.4489L48.6013 82.9939L48.8614 82.6449H55.9537C58.5448 82.6449 60.6346 84.4038 60.6346 86.8135C60.6346 89.2467 58.8947 91.0999 56.4549 91.6564L56.3934 91.8874C56.6298 92.0666 56.9277 92.4486 57.4856 93.2691L61.3722 98.7863L62.1997 99.8992L61.9302 100.253Z" stroke="#19427A" stroke-width="0.490911"/>
<path d="M46.0101 100.253H35.6175L35.2393 99.8991L35.2629 91.4489L35.2393 82.9939L35.6175 82.6449H45.6839L46.1236 82.9373V84.3189L45.6839 84.583C45.6839 84.583 42.5349 84.1397 41.0361 84.1397H38.3835C38.0053 84.1397 37.679 84.4321 37.679 84.8188L37.6507 90.1615L37.8587 90.3643L43.4474 90.2134L43.7406 90.4209V91.7978L43.4474 92.0053L37.8587 91.8638L37.6507 92.0666L37.679 98.0459C37.679 98.4326 38.0053 98.758 38.3835 98.758H41.0361C42.5349 98.758 46.0101 98.1968 46.0101 98.1968L46.4499 98.4656V99.9605L46.0101 100.253Z" stroke="#19427A" stroke-width="0.490911"/>
<path d="M25.6315 100.649C22.5109 100.649 20.6669 99.9558 19.0262 99.2815L18.8276 98.7156L19.395 96.6407L19.9671 96.6077C21.3383 98.046 23.3525 99.0787 25.8963 99.0787C28.2132 99.0787 30.1565 97.6074 30.1565 95.6693C30.1565 90.3879 18.8891 91.6611 18.8891 85.0074C18.8891 81.6358 21.3052 79.693 24.6575 79.693C27.6741 79.693 29.7215 80.1976 31.2629 80.2966L31.4945 80.7304L31.0974 82.7723L30.5584 82.9373C29.1824 82.131 27.3715 81.2303 24.5913 81.2303C22.7142 81.2303 21.3383 82.23 21.3383 83.805C21.3383 89.1854 32.6388 87.4501 32.6388 94.9714C32.6388 99.0787 29.3858 100.649 25.6315 100.649Z" stroke="#19427A" stroke-width="0.490911"/>
<path d="M18.8939 85.0075C18.8939 91.6658 30.1565 90.3879 30.1565 95.6741C30.1565 97.6075 28.2085 99.0834 25.8964 99.0834C23.3479 99.0834 21.3431 98.0413 19.9672 96.6077L19.3903 96.6406L18.823 98.7108L19.0263 99.2814C20.6717 99.951 22.511 100.649 25.6316 100.649C29.3859 100.649 32.6388 99.0833 32.6388 94.9714C32.6388 87.45 21.3431 89.1853 21.3431 83.8049C21.3431 82.2299 22.7096 81.2302 24.5962 81.2302C27.3716 81.2302 29.1825 82.1356 30.5584 82.9372L31.0927 82.7723L31.4993 80.7304L31.2582 80.2966C29.7215 80.1927 27.6789 79.693 24.6576 79.693C21.31 79.693 18.8939 81.6358 18.8939 85.0074V85.0075ZM93.3018 80.3249L85.7887 99.753C85.6895 100.017 85.7605 100.253 86.0583 100.253H88.4034C88.706 100.253 88.8385 100.149 88.9425 99.8803L90.5832 94.7356L90.985 94.4668H97.2263L97.6235 94.7356L98.7015 97.5744C98.9994 98.4138 99.4958 99.852 99.4958 99.852C99.6 100.116 99.8079 100.253 100.106 100.253H103.695C103.992 100.253 104.092 100.116 103.959 99.852C103.959 99.852 103.189 98.4468 102.853 97.6074L95.8456 80.3249C95.7653 80.1079 95.1648 80.0042 94.5596 80.0042C93.9639 80.0042 93.368 80.1078 93.3018 80.3249ZM91.2546 92.7315L93.8362 85.3092H94.1719L96.9852 92.7315L96.7866 93.0663H91.4862L91.2546 92.7315ZM70.3133 82.645L69.9255 82.9986L69.9586 91.4489L69.9255 99.8992L70.3133 100.253H80.7012L81.1362 99.9605V98.4609L80.7012 98.1968C80.7012 98.1968 77.2307 98.758 75.7224 98.758H73.0745C72.6963 98.758 72.3701 98.4279 72.3701 98.046L72.3418 92.0666L72.5499 91.8638L78.1386 92.0053L78.4318 91.7978V90.4255L78.1386 90.2134L72.5499 90.3642L72.3418 90.1615L72.3701 84.814C72.3701 84.432 72.6963 84.1397 73.0745 84.1397H75.7224C77.2307 84.1397 80.3749 84.5877 80.3749 84.5877L80.8146 84.3189V82.9372L80.3749 82.6449H70.3133V82.645ZM64.0768 82.6449L63.6985 82.9985L63.7221 91.4488L63.6985 99.8991L64.0768 100.253H65.7836L66.1666 99.8991L66.1385 91.4488L66.1666 82.9985L65.7836 82.6449H64.0768ZM48.8614 82.6449L48.5966 82.9985L48.6295 91.4488L48.5966 99.8991L48.9748 100.253H50.6865L51.0694 99.8991L51.0364 92.4768L51.5991 92.0053H53.566C54.1239 92.0053 54.5968 92.4203 55.0649 93.1795L59.1831 99.8991L59.6938 100.253H61.9302L62.1951 99.8991L61.3676 98.7815L57.4857 93.2643C56.9231 92.4485 56.6252 92.0666 56.3888 91.8874L56.4503 91.6563C58.89 91.0952 60.6301 89.2467 60.6301 86.8134C60.6301 84.4085 58.5449 82.6449 55.9538 82.6449H48.8614H48.8614ZM51.0364 90.3313L51.0695 84.4934C51.0695 84.1114 51.4478 83.819 51.8307 83.819H54.923C56.7481 83.819 57.9821 85.1677 57.9821 87.0162C57.9821 89.8361 56.3367 90.8641 53.7125 90.8641H51.599L51.0364 90.3313H51.0364ZM35.6176 82.6449L35.2394 82.9985L35.263 91.4488L35.2394 99.8991L35.6176 100.253H46.0102L46.4453 99.9604V98.4608L46.0102 98.1968C46.0102 98.1968 42.5398 98.7579 41.0362 98.7579H38.3836C38.0054 98.7579 37.6791 98.4279 37.6791 98.0459L37.6461 92.0666L37.8542 91.8638L43.4476 92.0052L43.7408 91.7977V90.4255L43.4476 90.2133L37.8542 90.3642L37.6461 90.1614L37.6791 84.814C37.6791 84.432 38.0054 84.1396 38.3836 84.1396H41.0362C42.5398 84.1396 45.684 84.5876 45.684 84.5876L46.1237 84.3188V82.9372L45.684 82.6448H35.6176" fill="url(#paint2_linear)"/>
<path d="M119.581 109.774L119.619 23.0827C119.567 17.4759 116.073 14.8116 113.993 13.7223C113.217 13.3167 94.5266 3.77245 61.6513 3.77245C28.1283 3.77245 9.56524 13.5808 9.37139 13.6893C5.76849 15.6227 3.77786 18.9471 3.77786 23.0497L3.74951 109.774H119.581H119.581ZM6.98825 106.539L7.01642 23.0497C7.01642 20.1496 8.35931 17.8956 10.9031 16.5328C11.078 16.4385 29.2722 6.99789 61.6511 6.99789C78.3464 6.99789 91.174 9.55845 98.9993 11.704C107.647 14.0807 112.3 16.4809 112.494 16.5846C114.248 17.4994 116.352 19.381 116.385 23.1157L116.347 106.539" fill="#AA9A4A"/>
<path d="M9.18661 13.4723C5.58373 15.4057 3.59316 18.7302 3.59316 22.8374L3.56958 109.557H119.402L119.435 22.8658C119.387 17.2589 115.884 14.5946 113.813 13.5053C113.028 13.0998 94.3419 3.55553 61.4713 3.55553C27.9435 3.55553 9.38521 13.3686 9.18661 13.4723ZM6.83198 22.8374C6.83198 19.9326 8.17953 17.6786 10.7186 16.3158C10.8934 16.2216 29.0877 6.78097 61.4713 6.78097C78.1572 6.78097 90.9895 9.34148 98.8147 11.4918C107.463 13.8637 112.12 16.264 112.314 16.3677C114.063 17.2825 116.167 19.1687 116.2 22.894L116.167 106.326H6.80372L6.83189 22.8374" fill="url(#paint3_linear)"/>
<path d="M43.8874 62.9619C33.1722 59.6417 24.9796 52.7138 24.5077 46.18C24.2638 42.8961 25.7195 39.7267 28.4377 36.9193C33.8335 31.3629 44.0103 26.9407 56.1975 26.259C68.3483 25.5773 81.7736 28.7647 87.9922 35.7107C89.5629 33.3498 90.0408 30.643 89.6657 28.0488C88.1373 17.5695 76.422 12.54 60.4158 12.2846C59.3653 12.2846 58.3006 12.3006 57.2299 12.3448C56.1511 12.387 55.1046 12.4554 54.0521 12.5318C29.3935 14.3799 10.8607 26.3716 12.1048 40.1027C12.9759 49.4861 22.7897 57.6648 36.834 61.8779C40.4292 62.9618 45.3795 63.4243 43.8874 62.9618" fill="#05A34C"/>
<path d="M53.4627 13.5087C30.639 15.7268 10.8702 26.2947 12.1183 40.06C12.9874 49.4695 22.8214 57.6683 36.8959 61.8894C37.1258 61.9598 37.3658 62.0302 37.6098 62.0945C40.217 62.7903 43.2174 63.1704 43.9735 63.1362C42.0196 62.4987 40.1645 61.7306 38.4284 60.8618C30.4979 57.1817 24.8923 51.5488 24.5072 46.1794C24.2632 42.8975 25.7191 39.7282 28.4392 36.9188C33.8331 31.3624 44.0098 26.9403 56.199 26.2585C67.6199 25.617 80.172 28.4022 86.8019 34.5056C87.3121 34.8555 87.7456 35.2075 88.0783 35.5654C88.288 35.2417 88.4695 34.9139 88.6408 34.5801C88.8828 34.0492 89.5604 32.6696 89.7418 30.6284C89.8124 29.7697 89.7923 28.9049 89.6673 28.0482C89.391 26.1378 88.7679 24.4124 87.8464 22.8599C83.4325 16.5393 72.2233 13.1909 60.018 13.1909C57.8524 13.1909 55.6586 13.2976 53.4627 13.5087Z" fill="url(#paint4_radial)"/>
<path d="M11.9409 40.2772C13.0318 52.0556 28.2333 61.9498 48.2078 64.4615C48.3127 64.4716 48.478 64.4857 48.5082 64.3128C48.5304 64.1398 48.3288 64.1077 48.3288 64.1077C45.2256 63.4762 42.2494 62.5531 39.5192 61.4069C24.2893 57.415 13.4552 48.8743 12.5458 38.9982C12.322 36.5267 12.7776 34.1739 13.7596 31.8632C12.3582 34.5499 11.6747 37.3492 11.9409 40.2772Z" fill="url(#paint5_linear)"/>
<g opacity="0.300003">
<g opacity="0.300003">
<g opacity="0.300003">
<g opacity="0.300003">
<g opacity="0.300003">
<path opacity="0.300003" d="M86.8744 34.5579C87.3463 34.8877 87.6527 35.3463 87.9734 35.6881C88.181 35.3664 88.4694 34.914 88.6429 34.5802C89.2175 33.2006 89.5805 32.4525 89.7418 30.6285C89.8123 29.7698 89.7921 28.905 89.6651 28.0483C89.3909 26.1379 88.7678 24.4125 87.8463 22.86C82.6481 15.4173 68.0332 12.0971 53.4607 13.5088C49.8231 13.8647 46.262 14.4278 42.8563 15.1859C24.4244 19.8635 17.3428 30.7713 28.7375 36.6353C30.1106 35.2739 31.7661 33.9849 33.6716 32.8064C33.7341 32.7682 33.7966 32.734 33.8571 32.6958C34.1878 32.4927 34.5186 32.2916 34.8614 32.0986C40.4065 28.9051 47.7865 26.6486 56.1989 26.174C67.6581 25.5245 80.2606 28.354 86.8744 34.5579Z" fill="url(#paint6_linear)"/>
</g>
</g>
</g>
</g>
</g>
<g opacity="0.5">
<g opacity="0.5">
<path opacity="0.5" d="M51.3071 20.2733C22.1478 23.9051 19.3047 44.0112 25.3257 51.2126C26.7553 53.5333 29.9614 55.866 32.5968 57.5191C27.8623 54.1748 24.7954 50.1085 24.507 46.181C24.374 44.3832 24.7551 42.6256 25.5657 40.9384C25.8338 40.2606 26.3541 39.587 26.7513 38.9394C30.4615 32.8601 39.4728 28.2992 50.0387 26.3626C64.8069 23.9655 81.6277 26.811 88.4996 34.7545C88.5036 34.7364 88.6891 34.477 88.6972 34.4569C88.7638 30.0769 78.8955 16.8445 51.3071 20.2733Z" fill="#059B4F"/>
</g>
</g>
<path d="M57.084 25.3476C44.9574 26.0354 34.6173 30.1438 29.2435 35.6941C28.2232 36.7479 27.3884 37.7977 26.7512 38.9399C27.2473 38.2381 27.8159 37.6087 28.4612 36.943C33.853 31.3866 44.0319 26.9624 56.223 26.2826C68.3557 25.5989 81.7608 28.7844 87.9915 35.7123C88.2899 35.2819 88.6023 34.6987 88.6568 34.5358C82.9564 28.179 71.6646 25.2469 60.6268 25.2469C59.4411 25.2469 58.2576 25.2812 57.084 25.3476Z" fill="url(#paint7_linear)"/>
<path d="M62.6615 34.9729C56.2654 34.1263 53.7026 37.3238 55.356 38.4881L62.6615 35.4073V34.9729ZM59.9635 40.1532C63.3027 40.119 66.0006 38.8541 65.9926 37.4484C65.9845 36.9919 65.8554 36.6983 65.3473 36.3303L58.2818 39.5258L58.2778 40.0849C58.8646 40.1532 59.3223 40.1593 59.9635 40.1532ZM75.2317 31.2244L66.4059 35.3932L66.418 35.9543C67.5291 36.5938 67.7347 37.183 67.7388 38.102C67.7529 40.1492 64.4682 41.8364 60.4091 41.8847C58.6488 41.8968 56.6707 41.4403 55.4024 40.9355L46.0886 45.4985C46.0886 45.4985 51.6035 47.5517 61.008 47.5517C73.3262 47.5517 83.9627 42.7796 83.8841 37.6777C83.8418 34.987 80.182 32.7387 75.2317 31.2244ZM53.2489 38.8139C53.2489 38.8139 53.0714 38.462 53.1501 38.0799C53.8941 33.9895 62.0465 33.9553 63.9298 34.9387L74.2598 30.6251C70.1605 29.515 64.8311 29.1148 60.4091 29.1571C48.0667 29.2918 37.035 33.2233 37.1056 38.3272C37.1419 40.4127 39.1099 42.3875 42.2333 44.0144L53.2449 39.4393L53.2489 38.8139Z" fill="#988A50"/>
<path d="M60.4394 28.8589C49.087 28.875 37.3334 32.9533 37.1882 37.9929C37.2225 40.0501 38.6702 41.7253 41.832 43.3321L53.2468 38.8134C52.9847 38.3106 52.9766 37.8199 52.9766 37.8199C52.8153 35.8934 56.2734 34.1418 60.3849 34.0996C62.0827 34.0815 63.2441 34.3509 63.9458 34.558L74.0622 30.5722C69.9487 29.4843 64.9843 28.8589 60.5361 28.8589C60.5039 28.8589 60.4716 28.8589 60.4394 28.8589ZM66.4059 35.3927C67.5411 36.0221 67.8435 36.7601 67.8475 37.6731C67.8717 39.6881 64.5528 41.3452 60.4474 41.3955C58.6629 41.4096 57.1647 41.1682 55.8782 40.6654L46.7741 45.2285C50.8896 46.421 55.8762 47.0786 61.0462 46.98C73.5318 46.7548 84.0736 42.6162 83.999 37.5846C83.9546 34.9381 80.442 32.3842 75.4292 30.8941L66.4059 35.3927ZM55.3539 37.9727L62.6614 34.9744C61.6633 34.8256 60.764 34.7592 59.9615 34.7592C55.2955 34.7592 53.8921 36.9733 55.3539 37.9727ZM58.3121 39.5212C58.9049 39.5977 59.3444 39.5996 59.9916 39.5956C63.3711 39.5574 66.0994 38.4112 66.0873 37.0236C66.0832 36.5771 65.9522 36.2835 65.4381 35.9276L58.3121 39.5212Z" fill="url(#paint8_radial)"/>
<g opacity="0.199997">
<g opacity="0.199997">
<path opacity="0.199997" d="M81.892 34.0713C78.5044 30.9402 70.1827 28.7924 60.4475 28.9071C69.9125 28.7964 78.0789 30.9181 81.892 34.0713ZM60.4395 28.9071C50.6881 29.0237 42.4027 31.3846 39.0978 34.6062C42.8282 31.3484 50.9563 29.0197 60.4395 28.9071ZM81.892 34.0713C82.9203 35.0245 83.5111 36.0622 83.5273 37.1602C83.5817 41.868 73.3263 45.8095 60.633 45.9644C47.9438 46.1192 37.6097 42.425 37.5513 37.7173C37.5392 36.6253 38.1017 35.5776 39.0978 34.6062C37.6884 35.835 36.8899 37.1904 36.904 38.6162C36.9645 43.8207 47.597 47.909 60.6613 47.7562C73.7195 47.5953 84.2592 43.2475 84.1927 38.0451C84.1806 36.6112 83.3418 35.2699 81.892 34.0713Z" fill="white"/>
</g>
</g>
<g opacity="0.149994">
<g opacity="0.149994">
<path opacity="0.149994" d="M54.9816 40.8329C55.4313 40.845 55.6833 40.3181 56.1229 40.3281C56.5524 40.3402 57.1714 40.8872 57.5969 40.8932C70.6168 41.1165 79.1825 39.8897 84.038 37.0039C82.687 32.3042 72.6211 28.7608 60.44 28.9056C47.3798 29.0625 36.8461 33.4143 36.9045 38.6148C36.9045 38.8883 36.9449 39.1577 37.0074 39.4172C38.9653 39.7791 41.1309 40.0567 43.5446 40.2296C47.6641 40.5232 51.4731 40.7243 54.9816 40.8329Z" fill="white"/>
</g>
</g>
<path d="M77.8909 12.7203C88.8077 15.5458 97.3068 21.8402 98.0589 28.2775C98.43 31.5132 97.1011 34.7086 94.4798 37.5904C89.2836 43.3077 79.0019 47.8144 66.7644 49.0049C54.5692 50.1934 41.1379 47.8968 34.5927 41.2967C33.6409 43.2011 33.4393 46.5756 33.9272 49.1276C35.8892 59.4179 47.1871 63.7013 63.3002 63.279C64.3669 63.2307 65.4376 63.1744 66.5083 63.09C67.5971 63.0015 68.6517 62.8848 69.7063 62.7702C94.4476 59.9005 112.603 47.2774 110.78 33.7595C109.526 24.5289 99.3152 16.857 85.0148 13.2814C81.345 12.3704 76.3624 12.3242 77.8909 12.7203Z" fill="#F48366"/>
<path d="M78.2905 12.8132C88.8161 15.6527 97.3073 21.8406 98.0574 28.2778C98.4284 31.5135 97.1016 34.7069 94.4782 37.5907C89.284 43.308 79.0003 47.8147 66.7648 49.0052C54.5675 50.1938 41.1061 47.7202 34.5648 41.1241C28.7213 57.9281 49.1999 65.037 71.0133 61.6062C94.4701 57.916 111.87 46.3225 110.196 33.9247C108.948 24.6921 99.3156 16.8554 85.0153 13.2818C82.8638 12.7489 80.3997 12.5376 79.0346 12.5376C78.0708 12.5376 77.6574 12.6422 78.2905 12.8132Z" fill="url(#paint9_radial)"/>
<path d="M72.8827 11.4977C72.8646 11.6686 73.0662 11.6927 73.0662 11.6927C76.228 12.1854 79.186 13.0059 82.0292 13.9913C97.5898 17.2753 108.898 25.2208 110.221 34.8957C110.555 37.325 110.329 39.6739 109.436 41.9906C110.743 39.2818 111.166 36.4945 110.779 33.6168C109.192 22.0696 93.44 12.9737 73.1752 11.3428C73.151 11.3408 73.1227 11.3368 73.0925 11.3368C72.9957 11.3368 72.8928 11.365 72.8827 11.4977Z" fill="url(#paint10_linear)"/>
<g opacity="0.649994">
<g opacity="0.649994">
<g opacity="0.649994">
<g opacity="0.649994">
<g opacity="0.649994">
<path opacity="0.649994" d="M79.0728 47.3983C94.7967 42.6885 105.435 34.3992 103.358 26.7372C102.189 22.4096 94.6052 17.8928 85.3136 15.3388C92.3831 18.5826 97.4825 23.3567 98.0592 28.2777C98.2871 30.2605 97.8737 32.2192 96.92 34.1116C96.305 35.7103 95.2968 37.2608 93.9478 38.7349C90.6973 42.2682 85.4829 45.3229 79.0728 47.3983Z" fill="url(#paint11_linear)"/>
</g>
</g>
</g>
</g>
</g>
<path d="M94.5065 37.4499C89.2759 43.137 78.9702 47.5874 66.7306 48.7116C54.5253 49.8277 41.1384 47.4728 34.6355 40.8385C34.4662 41.3976 34.3532 41.6992 34.2241 42.1638C40.8621 48.9147 53.9607 51.1127 66.158 49.9965C78.4016 48.8724 88.7174 44.4261 93.948 38.7369C95.3494 37.2045 96.3858 35.5918 96.9947 33.9226C96.3818 35.1373 95.547 36.3136 94.5065 37.4499Z" fill="url(#paint12_linear)"/>
</g>
<defs>
<radialGradient id="paint0_radial" cx="0" cy="0" r="1" gradientUnits="userSpaceOnUse" gradientTransform="translate(61.7266 153.133) scale(111.042 34.3444)">
<stop stop-color="#0087CA"/>
<stop offset="1" stop-color="#0B4B7F"/>
</radialGradient>
<linearGradient id="paint1_linear" x1="61.3848" y1="99.9486" x2="61.3848" y2="83.9308" gradientUnits="userSpaceOnUse">
<stop stop-color="#19427A"/>
<stop offset="1" stop-color="#007FC0"/>
</linearGradient>
<linearGradient id="paint2_linear" x1="61.3848" y1="99.9486" x2="61.3848" y2="83.9308" gradientUnits="userSpaceOnUse">
<stop stop-color="#19427A"/>
<stop offset="1" stop-color="#007FC0"/>
</linearGradient>
<linearGradient id="paint3_linear" x1="9.69492" y1="115.598" x2="112.981" y2="12.0345" gradientUnits="userSpaceOnUse">
<stop stop-color="#C3AB80"/>
<stop offset="1" stop-color="#CCB185"/>
</linearGradient>
<radialGradient id="paint4_radial" cx="0" cy="0" r="1" gradientUnits="userSpaceOnUse" gradientTransform="translate(35.3768 16.6596) rotate(-0.00963075) scale(38.1543 38.0649)">
<stop stop-color="#DBE1CC"/>
<stop offset="0.0414276" stop-color="#DBE1CC"/>
<stop offset="0.230774" stop-color="#A3C053"/>
<stop offset="0.301305" stop-color="#A3C053"/>
<stop offset="0.520706" stop-color="#17AE4B"/>
<stop offset="0.835146" stop-color="#187B45"/>
<stop offset="1" stop-color="#187B45"/>
</radialGradient>
<linearGradient id="paint5_linear" x1="41.17" y1="49.3159" x2="14.5701" y2="46.2914" gradientUnits="userSpaceOnUse">
<stop stop-color="#988A50"/>
<stop offset="0.017746" stop-color="#988A50"/>
<stop offset="0.50296" stop-color="#EBE1CA"/>
<stop offset="1" stop-color="#988A50"/>
</linearGradient>
<linearGradient id="paint6_linear" x1="37.4365" y1="31.9867" x2="93.9069" y2="19.0771" gradientUnits="userSpaceOnUse">
<stop stop-color="#DBE1CC"/>
<stop offset="0.0236664" stop-color="#DBE1CC"/>
<stop offset="0.360947" stop-color="white"/>
<stop offset="0.843927" stop-color="#05A34C"/>
<stop offset="0.964493" stop-color="#05A34C"/>
<stop offset="1" stop-color="#05A34C"/>
</linearGradient>
<linearGradient id="paint7_linear" x1="65.16" y1="44.4062" x2="39.3626" y2="17.8014" gradientUnits="userSpaceOnUse">
<stop stop-color="#988A50"/>
<stop offset="0.0295868" stop-color="#988A50"/>
<stop offset="0.50296" stop-color="#EBE1CA"/>
<stop offset="1" stop-color="#988A50"/>
</linearGradient>
<radialGradient id="paint8_radial" cx="0" cy="0" r="1" gradientUnits="userSpaceOnUse" gradientTransform="translate(60.3455 26.8356) scale(23.3689 23.3063)">
<stop stop-color="#EBE1CA"/>
<stop offset="0.08284" stop-color="#EBE1CA"/>
<stop offset="0.196991" stop-color="#EBE1CA"/>
<stop offset="0.822479" stop-color="#988A50"/>
<stop offset="1" stop-color="#988A50"/>
</radialGradient>
<radialGradient id="paint9_radial" cx="0" cy="0" r="1" gradientUnits="userSpaceOnUse" gradientTransform="translate(65.5952 31.4115) scale(42.4716 42.358)">
<stop stop-color="#FBE6DB"/>
<stop offset="0.0414276" stop-color="#FBE6DB"/>
<stop offset="0.25444" stop-color="#E17C35"/>
<stop offset="0.327851" stop-color="#E17C35"/>
<stop offset="0.556213" stop-color="#D73A3B"/>
<stop offset="0.883268" stop-color="#9E363A"/>
<stop offset="1" stop-color="#9E363A"/>
</radialGradient>
<linearGradient id="paint10_linear" x1="82.5163" y1="14.8744" x2="104.631" y2="30.6733" gradientUnits="userSpaceOnUse">
<stop stop-color="#988A50"/>
<stop offset="0.0295868" stop-color="#988A50"/>
<stop offset="0.50296" stop-color="#EBE1CA"/>
<stop offset="1" stop-color="#988A50"/>
</linearGradient>
<linearGradient id="paint11_linear" x1="77.4926" y1="37.1822" x2="99.6849" y2="24.5394" gradientUnits="userSpaceOnUse">
<stop stop-color="#C5D8C8"/>
<stop offset="0.727814" stop-color="#F0DED1"/>
<stop offset="0.861132" stop-color="#F0DED1"/>
<stop offset="1" stop-color="#DC6749"/>
</linearGradient>
<linearGradient id="paint12_linear" x1="34.2248" y1="41.8514" x2="96.9499" y2="42.2036" gradientUnits="userSpaceOnUse">
<stop stop-color="#988A50"/>
<stop offset="0.017746" stop-color="#988A50"/>
<stop offset="0.50296" stop-color="#EBE1CA"/>
<stop offset="1" stop-color="#988A50"/>
</linearGradient>
<clipPath id="clip0">
<rect width="123" height="159" fill="white"/>
</clipPath>
</defs>
</svg>
